G75*
G70*
%OFA0B0*%
%FSLAX24Y24*%
%IPPOS*%
%LPD*%
%AMOC8*
5,1,8,0,0,1.08239X$1,22.5*
%
%ADD10C,0.0740*%
%ADD11C,0.0520*%
%ADD12C,0.0560*%
%ADD13C,0.0160*%
%ADD14C,0.0500*%
D10*
X001500Y012252D03*
X001500Y013252D03*
X001500Y014252D03*
X001500Y015252D03*
X001500Y016252D03*
X001500Y017252D03*
X001500Y018252D03*
X001500Y019252D03*
X001500Y020752D03*
X001500Y021752D03*
X001500Y022752D03*
X001500Y023752D03*
X001500Y024752D03*
X001500Y025752D03*
X001500Y026752D03*
X001500Y027752D03*
X020500Y027752D03*
X020500Y026752D03*
X020500Y025752D03*
X020500Y024752D03*
X020500Y023752D03*
X020500Y022752D03*
X020500Y020752D03*
X020500Y019752D03*
X020500Y018752D03*
X020500Y017752D03*
X020500Y016752D03*
X020500Y015752D03*
D11*
X013260Y015252D02*
X012740Y015252D01*
X012740Y016252D02*
X013260Y016252D01*
X013260Y017252D02*
X012740Y017252D01*
X012740Y018252D02*
X013260Y018252D01*
X013260Y019252D02*
X012740Y019252D01*
X012740Y020252D02*
X013260Y020252D01*
X010260Y020252D02*
X009740Y020252D01*
X009740Y019252D02*
X010260Y019252D01*
X010260Y018252D02*
X009740Y018252D01*
X009740Y017252D02*
X010260Y017252D01*
X010260Y016252D02*
X009740Y016252D01*
X009740Y015252D02*
X010260Y015252D01*
X010260Y014252D02*
X009740Y014252D01*
X009740Y013252D02*
X010260Y013252D01*
X012740Y013252D02*
X013260Y013252D01*
X013260Y014252D02*
X012740Y014252D01*
D12*
X015720Y016252D02*
X016280Y016252D01*
X016280Y017252D02*
X015720Y017252D01*
X012500Y025472D02*
X012500Y026032D01*
X011500Y026032D02*
X011500Y025472D01*
X010500Y025472D02*
X010500Y026032D01*
X007500Y026032D02*
X007500Y025472D01*
X006500Y025472D02*
X006500Y026032D01*
X005500Y026032D02*
X005500Y025472D01*
X005720Y017252D02*
X006280Y017252D01*
X006280Y016252D02*
X005720Y016252D01*
X016000Y026472D02*
X016000Y027032D01*
X017000Y027032D02*
X017000Y026472D01*
D13*
X001800Y011803D02*
X001630Y011732D01*
X021512Y011732D01*
X021512Y028142D01*
X020859Y028142D01*
X020949Y028053D01*
X021030Y027858D01*
X021030Y027647D01*
X020949Y027452D01*
X020800Y027303D01*
X020678Y027252D01*
X020800Y027202D01*
X020949Y027053D01*
X021030Y026858D01*
X021030Y026647D01*
X020949Y026452D01*
X020800Y026303D01*
X020678Y026252D01*
X020800Y026202D01*
X020949Y026053D01*
X021030Y025858D01*
X021030Y025647D01*
X020949Y025452D01*
X020800Y025303D01*
X020678Y025252D01*
X020800Y025202D01*
X020949Y025053D01*
X021030Y024858D01*
X021030Y024647D01*
X020949Y024452D01*
X020800Y024303D01*
X020678Y024252D01*
X020800Y024202D01*
X020949Y024053D01*
X021030Y023858D01*
X021030Y023647D01*
X020949Y023452D01*
X020800Y023303D01*
X020678Y023252D01*
X020800Y023202D01*
X020949Y023053D01*
X021030Y022858D01*
X021030Y022647D01*
X020949Y022452D01*
X020800Y022303D01*
X020605Y022222D01*
X020395Y022222D01*
X020200Y022303D01*
X020051Y022452D01*
X019970Y022647D01*
X019970Y022858D01*
X020051Y023053D01*
X020200Y023202D01*
X020322Y023252D01*
X020200Y023303D01*
X020051Y023452D01*
X019970Y023647D01*
X019970Y023858D01*
X020051Y024053D01*
X020200Y024202D01*
X020322Y024252D01*
X020200Y024303D01*
X020051Y024452D01*
X019970Y024647D01*
X019970Y024858D01*
X020051Y025053D01*
X020200Y025202D01*
X020322Y025252D01*
X020200Y025303D01*
X020051Y025452D01*
X019970Y025647D01*
X019970Y025858D01*
X020051Y026053D01*
X020200Y026202D01*
X020322Y026252D01*
X020200Y026303D01*
X020051Y026452D01*
X019970Y026647D01*
X019970Y026858D01*
X020051Y027053D01*
X020200Y027202D01*
X020322Y027252D01*
X020200Y027303D01*
X020051Y027452D01*
X019970Y027647D01*
X019970Y027858D01*
X020051Y028053D01*
X020141Y028142D01*
X016630Y028142D01*
X016732Y028100D01*
X016848Y027985D01*
X017348Y027485D01*
X017410Y027334D01*
X017410Y027192D01*
X017440Y027120D01*
X017440Y026385D01*
X017410Y026312D01*
X017410Y023422D01*
X019670Y021162D01*
X020160Y021162D01*
X020200Y021202D01*
X020395Y021282D01*
X020605Y021282D01*
X020800Y021202D01*
X020949Y021053D01*
X021030Y020858D01*
X021030Y020647D01*
X020949Y020452D01*
X020800Y020303D01*
X020706Y020264D01*
X020711Y020262D01*
X020788Y020223D01*
X020858Y020172D01*
X020920Y020111D01*
X020970Y020041D01*
X021010Y019963D01*
X021036Y019881D01*
X021050Y019796D01*
X021050Y019772D01*
X020520Y019772D01*
X020520Y019732D01*
X020520Y019202D01*
X020480Y019202D01*
X020520Y019202D02*
X020520Y018772D01*
X021050Y018772D01*
X021050Y018796D01*
X021036Y018881D01*
X021010Y018963D01*
X020970Y019041D01*
X020920Y019111D01*
X020858Y019172D01*
X020788Y019223D01*
X020730Y019252D01*
X020788Y019282D01*
X020858Y019333D01*
X020920Y019394D01*
X020970Y019464D01*
X021010Y019541D01*
X021036Y019624D01*
X021050Y019709D01*
X021050Y019732D01*
X020520Y019732D01*
X020480Y019732D01*
X020480Y018772D01*
X020480Y018732D01*
X019950Y018732D01*
X019950Y018709D01*
X019964Y018624D01*
X019990Y018541D01*
X020030Y018464D01*
X020080Y018394D01*
X020142Y018333D01*
X020212Y018282D01*
X020289Y018243D01*
X020294Y018241D01*
X020200Y018202D01*
X020051Y018053D01*
X020026Y017992D01*
X018452Y017992D01*
X018364Y017956D01*
X018297Y017888D01*
X017797Y017388D01*
X017760Y017300D01*
X017760Y012970D01*
X017283Y012492D01*
X012099Y012492D01*
X011136Y013456D01*
X011048Y013492D01*
X010614Y013492D01*
X010594Y013512D01*
X011401Y013512D01*
X011797Y013116D01*
X011864Y013049D01*
X011952Y013012D01*
X012386Y013012D01*
X012502Y012896D01*
X012656Y012832D01*
X013344Y012832D01*
X013498Y012896D01*
X013616Y013014D01*
X013680Y013169D01*
X013680Y013336D01*
X013616Y013490D01*
X013498Y013608D01*
X013344Y013672D01*
X012656Y013672D01*
X012502Y013608D01*
X012386Y013492D01*
X012099Y013492D01*
X011703Y013888D01*
X011703Y013888D01*
X011636Y013956D01*
X011548Y013992D01*
X010594Y013992D01*
X010616Y014014D01*
X010680Y014169D01*
X010680Y014336D01*
X010616Y014490D01*
X010498Y014608D01*
X010344Y014672D01*
X009656Y014672D01*
X009502Y014608D01*
X009386Y014492D01*
X005099Y014492D01*
X004240Y015352D01*
X004240Y016300D01*
X004203Y016388D01*
X004136Y016456D01*
X003136Y017456D01*
X003048Y017492D01*
X001974Y017492D01*
X001949Y017553D01*
X001800Y017702D01*
X001678Y017752D01*
X001800Y017803D01*
X001949Y017952D01*
X001974Y018012D01*
X006976Y018012D01*
X007000Y018008D01*
X007024Y018012D01*
X007048Y018012D01*
X007070Y018022D01*
X007093Y018026D01*
X007114Y018040D01*
X007136Y018049D01*
X007153Y018066D01*
X008573Y019012D01*
X009386Y019012D01*
X009502Y018896D01*
X009656Y018832D01*
X010344Y018832D01*
X010498Y018896D01*
X010616Y019014D01*
X010680Y019169D01*
X010680Y019233D01*
X010760Y019153D01*
X010760Y014705D01*
X010797Y014616D01*
X011297Y014116D01*
X011364Y014049D01*
X011452Y014012D01*
X012386Y014012D01*
X012502Y013896D01*
X012656Y013832D01*
X013344Y013832D01*
X013498Y013896D01*
X013616Y014014D01*
X013680Y014169D01*
X013680Y014336D01*
X013616Y014490D01*
X013498Y014608D01*
X013344Y014672D01*
X012656Y014672D01*
X012502Y014608D01*
X012386Y014492D01*
X011599Y014492D01*
X011240Y014852D01*
X011240Y019300D01*
X011203Y019388D01*
X011136Y019456D01*
X010636Y019956D01*
X010580Y019979D01*
X010616Y020014D01*
X010680Y020169D01*
X010680Y020336D01*
X010616Y020490D01*
X010498Y020608D01*
X010344Y020672D01*
X009656Y020672D01*
X009502Y020608D01*
X009386Y020492D01*
X008599Y020492D01*
X007136Y021956D01*
X007048Y021992D01*
X001974Y021992D01*
X001949Y022053D01*
X001800Y022202D01*
X001678Y022252D01*
X001800Y022303D01*
X001949Y022452D01*
X001974Y022512D01*
X008901Y022512D01*
X011260Y020153D01*
X011260Y019705D01*
X011297Y019616D01*
X011797Y019116D01*
X011864Y019049D01*
X011952Y019012D01*
X012386Y019012D01*
X012502Y018896D01*
X012656Y018832D01*
X013344Y018832D01*
X013498Y018896D01*
X013616Y019014D01*
X013680Y019169D01*
X013680Y019336D01*
X013616Y019490D01*
X013498Y019608D01*
X013344Y019672D01*
X012656Y019672D01*
X012502Y019608D01*
X012386Y019492D01*
X012099Y019492D01*
X011740Y019852D01*
X011740Y020300D01*
X011703Y020388D01*
X011636Y020456D01*
X009136Y022956D01*
X009048Y022992D01*
X001974Y022992D01*
X001949Y023053D01*
X001800Y023202D01*
X001678Y023252D01*
X001800Y023303D01*
X001949Y023452D01*
X002030Y023647D01*
X002030Y023858D01*
X001949Y024053D01*
X001800Y024202D01*
X001678Y024252D01*
X001800Y024303D01*
X001949Y024452D01*
X001974Y024512D01*
X003401Y024512D01*
X004297Y023616D01*
X004364Y023549D01*
X004452Y023512D01*
X010548Y023512D01*
X010636Y023549D01*
X011636Y024549D01*
X011703Y024616D01*
X011740Y024705D01*
X011740Y025096D01*
X011749Y025099D01*
X011873Y025223D01*
X011940Y025385D01*
X011940Y026120D01*
X011873Y026282D01*
X011749Y026405D01*
X011588Y026472D01*
X011412Y026472D01*
X011251Y026405D01*
X011127Y026282D01*
X011060Y026120D01*
X011060Y025385D01*
X011127Y025223D01*
X011251Y025099D01*
X011260Y025096D01*
X011260Y024852D01*
X010401Y023992D01*
X004599Y023992D01*
X003636Y024956D01*
X003548Y024992D01*
X001974Y024992D01*
X001949Y025053D01*
X001800Y025202D01*
X001678Y025252D01*
X001800Y025303D01*
X001949Y025452D01*
X001974Y025512D01*
X002548Y025512D01*
X002636Y025549D01*
X004099Y027012D01*
X005901Y027012D01*
X006260Y026653D01*
X006260Y026409D01*
X006251Y026405D01*
X006127Y026282D01*
X006060Y026120D01*
X006060Y025385D01*
X006127Y025223D01*
X006251Y025099D01*
X006412Y025032D01*
X006588Y025032D01*
X006749Y025099D01*
X006873Y025223D01*
X006940Y025385D01*
X006940Y026120D01*
X006873Y026282D01*
X006749Y026405D01*
X006740Y026409D01*
X006740Y026800D01*
X006703Y026888D01*
X006636Y026956D01*
X006136Y027456D01*
X006048Y027492D01*
X003952Y027492D01*
X003864Y027456D01*
X003797Y027388D01*
X002401Y025992D01*
X001974Y025992D01*
X001949Y026053D01*
X001800Y026202D01*
X001678Y026252D01*
X001800Y026303D01*
X001949Y026452D01*
X002030Y026647D01*
X002030Y026858D01*
X001949Y027053D01*
X001800Y027202D01*
X001678Y027252D01*
X001800Y027303D01*
X001949Y027452D01*
X002030Y027647D01*
X002030Y027858D01*
X001949Y028053D01*
X001859Y028142D01*
X008370Y028142D01*
X008268Y028100D01*
X007152Y026985D01*
X007090Y026834D01*
X007090Y026192D01*
X007060Y026120D01*
X007060Y025385D01*
X007127Y025223D01*
X007251Y025099D01*
X007412Y025032D01*
X007588Y025032D01*
X007749Y025099D01*
X007873Y025223D01*
X007940Y025385D01*
X007940Y026120D01*
X007910Y026192D01*
X007910Y026583D01*
X008670Y027342D01*
X011330Y027342D01*
X012090Y026583D01*
X012090Y026192D01*
X012060Y026120D01*
X012060Y025385D01*
X012127Y025223D01*
X012251Y025099D01*
X012412Y025032D01*
X012588Y025032D01*
X012749Y025099D01*
X012873Y025223D01*
X012940Y025385D01*
X012940Y026120D01*
X012910Y026192D01*
X012910Y026583D01*
X013670Y027342D01*
X015659Y027342D01*
X015649Y027332D01*
X015607Y027273D01*
X015574Y027209D01*
X015551Y027140D01*
X015540Y027069D01*
X015540Y026762D01*
X015990Y026762D01*
X015990Y026742D01*
X016010Y026742D01*
X016010Y026012D01*
X016036Y026012D01*
X016108Y026024D01*
X016177Y026046D01*
X016241Y026079D01*
X016300Y026121D01*
X016351Y026173D01*
X016393Y026231D01*
X016426Y026296D01*
X016449Y026365D01*
X016460Y026436D01*
X016460Y026742D01*
X016010Y026742D01*
X016010Y026762D01*
X016460Y026762D01*
X016460Y027069D01*
X016449Y027140D01*
X016426Y027209D01*
X016393Y027273D01*
X016378Y027294D01*
X016560Y027113D01*
X016560Y026385D01*
X016590Y026312D01*
X016590Y023422D01*
X014537Y021369D01*
X013918Y021369D01*
X013768Y021307D01*
X013652Y021192D01*
X013133Y020672D01*
X012656Y020672D01*
X012502Y020608D01*
X012384Y020490D01*
X012320Y020336D01*
X012320Y020169D01*
X012384Y020014D01*
X012502Y019896D01*
X012656Y019832D01*
X013344Y019832D01*
X013368Y019842D01*
X013374Y019842D01*
X013525Y019905D01*
X013640Y020020D01*
X014170Y020549D01*
X014789Y020549D01*
X014939Y020612D01*
X017000Y022673D01*
X019268Y020405D01*
X019418Y020342D01*
X020160Y020342D01*
X020200Y020303D01*
X020294Y020264D01*
X020289Y020262D01*
X020212Y020223D01*
X020142Y020172D01*
X020080Y020111D01*
X020030Y020041D01*
X019990Y019963D01*
X019964Y019881D01*
X019950Y019796D01*
X019950Y019772D01*
X020480Y019772D01*
X020480Y019732D01*
X019950Y019732D01*
X019950Y019709D01*
X019964Y019624D01*
X019990Y019541D01*
X020030Y019464D01*
X020080Y019394D01*
X020142Y019333D01*
X020212Y019282D01*
X020270Y019252D01*
X020212Y019223D01*
X020142Y019172D01*
X020080Y019111D01*
X020030Y019041D01*
X019990Y018963D01*
X019964Y018881D01*
X019950Y018796D01*
X019950Y018772D01*
X020480Y018772D01*
X020520Y018772D01*
X020520Y018732D01*
X021050Y018732D01*
X021050Y018709D01*
X021036Y018624D01*
X021010Y018541D01*
X020970Y018464D01*
X020920Y018394D01*
X020858Y018333D01*
X020788Y018282D01*
X020711Y018243D01*
X020706Y018241D01*
X020800Y018202D01*
X020949Y018053D01*
X021030Y017858D01*
X021030Y017647D01*
X020949Y017452D01*
X020800Y017303D01*
X020678Y017252D01*
X020800Y017202D01*
X020949Y017053D01*
X021030Y016858D01*
X021030Y016647D01*
X020949Y016452D01*
X020800Y016303D01*
X020678Y016252D01*
X020800Y016202D01*
X020949Y016053D01*
X021030Y015858D01*
X021030Y015647D01*
X020949Y015452D01*
X020800Y015303D01*
X020605Y015222D01*
X020395Y015222D01*
X020200Y015303D01*
X020051Y015452D01*
X019970Y015647D01*
X019970Y015858D01*
X020051Y016053D01*
X020200Y016202D01*
X020322Y016252D01*
X020200Y016303D01*
X020051Y016452D01*
X019970Y016647D01*
X019970Y016858D01*
X020051Y017053D01*
X020200Y017202D01*
X020322Y017252D01*
X020200Y017303D01*
X020051Y017452D01*
X020026Y017512D01*
X018599Y017512D01*
X018240Y017153D01*
X018240Y012823D01*
X018203Y012734D01*
X018136Y012667D01*
X017518Y012049D01*
X017430Y012012D01*
X011952Y012012D01*
X011864Y012049D01*
X011797Y012116D01*
X010901Y013012D01*
X010614Y013012D01*
X010498Y012896D01*
X010344Y012832D01*
X009656Y012832D01*
X009502Y012896D01*
X009384Y013014D01*
X009320Y013169D01*
X009320Y013336D01*
X009384Y013490D01*
X009406Y013512D01*
X004452Y013512D01*
X004364Y013549D01*
X004297Y013616D01*
X003297Y014616D01*
X003260Y014705D01*
X003260Y015653D01*
X002901Y016012D01*
X001974Y016012D01*
X001949Y015952D01*
X001800Y015803D01*
X001678Y015752D01*
X001800Y015702D01*
X001949Y015553D01*
X002030Y015358D01*
X002030Y015147D01*
X001949Y014952D01*
X001800Y014803D01*
X001678Y014752D01*
X001800Y014702D01*
X001949Y014553D01*
X002030Y014358D01*
X002030Y014147D01*
X001949Y013952D01*
X001800Y013803D01*
X001706Y013764D01*
X001711Y013762D01*
X001788Y013723D01*
X001858Y013672D01*
X001920Y013611D01*
X001970Y013541D01*
X002010Y013463D01*
X002036Y013381D01*
X002050Y013296D01*
X002050Y013272D01*
X001520Y013272D01*
X001520Y013232D01*
X002050Y013232D01*
X002050Y013209D01*
X002036Y013124D01*
X002010Y013041D01*
X001970Y012964D01*
X001920Y012894D01*
X001858Y012833D01*
X001788Y012782D01*
X001711Y012743D01*
X001706Y012741D01*
X001800Y012702D01*
X001949Y012553D01*
X002030Y012358D01*
X002030Y012147D01*
X001949Y011952D01*
X001800Y011803D01*
X001678Y011752D02*
X021512Y011752D01*
X021512Y011911D02*
X001908Y011911D01*
X001998Y012069D02*
X011844Y012069D01*
X011685Y012228D02*
X002030Y012228D01*
X002018Y012386D02*
X011527Y012386D01*
X011368Y012545D02*
X001953Y012545D01*
X001796Y012703D02*
X011210Y012703D01*
X011051Y012862D02*
X010415Y012862D01*
X010000Y013252D02*
X011000Y013252D01*
X012000Y012252D01*
X017382Y012252D01*
X018000Y012870D01*
X018000Y017252D01*
X018500Y017752D01*
X020500Y017752D01*
X021030Y017775D02*
X021512Y017775D01*
X021512Y017617D02*
X021018Y017617D01*
X020952Y017458D02*
X021512Y017458D01*
X021512Y017300D02*
X020793Y017300D01*
X020861Y017141D02*
X021512Y017141D01*
X021512Y016983D02*
X020978Y016983D01*
X021030Y016824D02*
X021512Y016824D01*
X021512Y016666D02*
X021030Y016666D01*
X020972Y016507D02*
X021512Y016507D01*
X021512Y016349D02*
X020846Y016349D01*
X020812Y016190D02*
X021512Y016190D01*
X021512Y016032D02*
X020958Y016032D01*
X021024Y015873D02*
X021512Y015873D01*
X021512Y015715D02*
X021030Y015715D01*
X020992Y015556D02*
X021512Y015556D01*
X021512Y015398D02*
X020895Y015398D01*
X020646Y015239D02*
X021512Y015239D01*
X021512Y015081D02*
X018240Y015081D01*
X018240Y015239D02*
X020354Y015239D01*
X020105Y015398D02*
X018240Y015398D01*
X018240Y015556D02*
X020008Y015556D01*
X019970Y015715D02*
X018240Y015715D01*
X018240Y015873D02*
X019976Y015873D01*
X020042Y016032D02*
X018240Y016032D01*
X018240Y016190D02*
X020188Y016190D01*
X020154Y016349D02*
X018240Y016349D01*
X018240Y016507D02*
X020028Y016507D01*
X019970Y016666D02*
X018240Y016666D01*
X018240Y016824D02*
X019970Y016824D01*
X020022Y016983D02*
X018240Y016983D01*
X018240Y017141D02*
X020139Y017141D01*
X020207Y017300D02*
X018387Y017300D01*
X018545Y017458D02*
X020048Y017458D01*
X020090Y018092D02*
X014740Y018092D01*
X014898Y017934D02*
X018342Y017934D01*
X018184Y017775D02*
X015057Y017775D01*
X015170Y017662D02*
X014232Y018600D01*
X014082Y018662D01*
X013368Y018662D01*
X013344Y018672D01*
X012656Y018672D01*
X012502Y018608D01*
X012384Y018490D01*
X012320Y018336D01*
X012320Y018169D01*
X012384Y018014D01*
X012502Y017896D01*
X012656Y017832D01*
X013344Y017832D01*
X013368Y017842D01*
X013830Y017842D01*
X014652Y017020D01*
X014768Y016905D01*
X014918Y016842D01*
X015560Y016842D01*
X015632Y016812D01*
X016368Y016812D01*
X016529Y016879D01*
X016653Y017003D01*
X016720Y017165D01*
X016720Y017340D01*
X016653Y017502D01*
X016529Y017625D01*
X016368Y017692D01*
X015632Y017692D01*
X015560Y017662D01*
X015170Y017662D01*
X014531Y017141D02*
X013687Y017141D01*
X013689Y017149D02*
X013700Y017218D01*
X013700Y017252D01*
X013000Y017252D01*
X013000Y016812D01*
X013295Y016812D01*
X013363Y016823D01*
X013429Y016845D01*
X013491Y016876D01*
X013547Y016917D01*
X013596Y016966D01*
X013636Y017022D01*
X013668Y017083D01*
X013689Y017149D01*
X013700Y017252D02*
X013700Y017287D01*
X013689Y017355D01*
X013668Y017421D01*
X013636Y017483D01*
X013596Y017539D01*
X013547Y017588D01*
X013491Y017629D01*
X013429Y017660D01*
X013363Y017682D01*
X013295Y017692D01*
X013000Y017692D01*
X012705Y017692D01*
X012637Y017682D01*
X012571Y017660D01*
X012509Y017629D01*
X012453Y017588D01*
X012404Y017539D01*
X012364Y017483D01*
X012332Y017421D01*
X012311Y017355D01*
X012300Y017287D01*
X012300Y017252D01*
X012300Y017218D01*
X012311Y017149D01*
X012332Y017083D01*
X012364Y017022D01*
X012404Y016966D01*
X012453Y016917D01*
X012509Y016876D01*
X012571Y016845D01*
X012637Y016823D01*
X012705Y016812D01*
X013000Y016812D01*
X013000Y017252D01*
X013000Y017252D01*
X013000Y017252D01*
X012300Y017252D01*
X013000Y017252D01*
X013000Y017252D01*
X013700Y017252D01*
X013698Y017300D02*
X014373Y017300D01*
X014214Y017458D02*
X013649Y017458D01*
X013507Y017617D02*
X014056Y017617D01*
X013897Y017775D02*
X011240Y017775D01*
X011240Y017617D02*
X012493Y017617D01*
X012351Y017458D02*
X011240Y017458D01*
X011240Y017300D02*
X012302Y017300D01*
X012313Y017141D02*
X011240Y017141D01*
X011240Y016983D02*
X012392Y016983D01*
X012633Y016824D02*
X011240Y016824D01*
X011240Y016666D02*
X012589Y016666D01*
X012571Y016660D02*
X012509Y016629D01*
X012453Y016588D01*
X012404Y016539D01*
X012364Y016483D01*
X012332Y016421D01*
X012311Y016355D01*
X012300Y016287D01*
X012300Y016252D01*
X012300Y016218D01*
X012311Y016149D01*
X012332Y016083D01*
X012364Y016022D01*
X012404Y015966D01*
X012453Y015917D01*
X012509Y015876D01*
X012571Y015845D01*
X012637Y015823D01*
X012705Y015812D01*
X013000Y015812D01*
X013295Y015812D01*
X013363Y015823D01*
X013429Y015845D01*
X013491Y015876D01*
X013547Y015917D01*
X013596Y015966D01*
X013636Y016022D01*
X013668Y016083D01*
X013689Y016149D01*
X013700Y016218D01*
X013700Y016252D01*
X013000Y016252D01*
X013000Y015812D01*
X013000Y016252D01*
X013000Y016252D01*
X013000Y016252D01*
X012300Y016252D01*
X013000Y016252D01*
X013000Y016252D01*
X013700Y016252D01*
X013700Y016287D01*
X013689Y016355D01*
X013668Y016421D01*
X013636Y016483D01*
X013596Y016539D01*
X013547Y016588D01*
X013491Y016629D01*
X013429Y016660D01*
X013363Y016682D01*
X013295Y016692D01*
X013000Y016692D01*
X012705Y016692D01*
X012637Y016682D01*
X012571Y016660D01*
X012381Y016507D02*
X011240Y016507D01*
X011240Y016349D02*
X012310Y016349D01*
X012304Y016190D02*
X011240Y016190D01*
X011240Y016032D02*
X012359Y016032D01*
X012515Y015873D02*
X011240Y015873D01*
X011240Y015715D02*
X013883Y015715D01*
X013830Y015662D02*
X013368Y015662D01*
X013344Y015672D01*
X012656Y015672D01*
X012502Y015608D01*
X012384Y015490D01*
X012320Y015336D01*
X012320Y015169D01*
X012384Y015014D01*
X012502Y014896D01*
X012656Y014832D01*
X013344Y014832D01*
X013368Y014842D01*
X014082Y014842D01*
X014232Y014905D01*
X015170Y015842D01*
X015560Y015842D01*
X015632Y015812D01*
X016368Y015812D01*
X016529Y015879D01*
X016653Y016003D01*
X016720Y016165D01*
X016720Y016340D01*
X016653Y016502D01*
X016529Y016625D01*
X016368Y016692D01*
X015632Y016692D01*
X015560Y016662D01*
X014918Y016662D01*
X014768Y016600D01*
X014652Y016485D01*
X013830Y015662D01*
X014041Y015873D02*
X013485Y015873D01*
X013641Y016032D02*
X014200Y016032D01*
X014358Y016190D02*
X013696Y016190D01*
X013690Y016349D02*
X014517Y016349D01*
X014675Y016507D02*
X013619Y016507D01*
X013411Y016666D02*
X015569Y016666D01*
X015603Y016824D02*
X013367Y016824D01*
X013608Y016983D02*
X014690Y016983D01*
X015042Y015715D02*
X017760Y015715D01*
X017760Y015873D02*
X016515Y015873D01*
X016665Y016032D02*
X017760Y016032D01*
X017760Y016190D02*
X016720Y016190D01*
X016716Y016349D02*
X017760Y016349D01*
X017760Y016507D02*
X016647Y016507D01*
X016431Y016666D02*
X017760Y016666D01*
X017760Y016824D02*
X016397Y016824D01*
X016633Y016983D02*
X017760Y016983D01*
X017760Y017141D02*
X016710Y017141D01*
X016720Y017300D02*
X017760Y017300D01*
X017867Y017458D02*
X016671Y017458D01*
X016538Y017617D02*
X018025Y017617D01*
X017760Y015556D02*
X014884Y015556D01*
X014725Y015398D02*
X017760Y015398D01*
X017760Y015239D02*
X014567Y015239D01*
X014408Y015081D02*
X017760Y015081D01*
X017760Y014922D02*
X014250Y014922D01*
X013634Y014447D02*
X017760Y014447D01*
X017760Y014605D02*
X013501Y014605D01*
X013680Y014288D02*
X017760Y014288D01*
X017760Y014130D02*
X013664Y014130D01*
X013573Y013971D02*
X017760Y013971D01*
X017760Y013813D02*
X011779Y013813D01*
X011937Y013654D02*
X012613Y013654D01*
X012390Y013496D02*
X012096Y013496D01*
X012000Y013252D02*
X013000Y013252D01*
X013387Y013654D02*
X017760Y013654D01*
X017760Y013496D02*
X013610Y013496D01*
X013679Y013337D02*
X017760Y013337D01*
X017760Y013179D02*
X013680Y013179D01*
X013619Y013020D02*
X017760Y013020D01*
X017652Y012862D02*
X013415Y012862D01*
X012585Y012862D02*
X011730Y012862D01*
X011571Y013020D02*
X011933Y013020D01*
X011797Y013116D02*
X011797Y013116D01*
X011734Y013179D02*
X011413Y013179D01*
X011254Y013337D02*
X011576Y013337D01*
X011417Y013496D02*
X010610Y013496D01*
X010664Y014130D02*
X011283Y014130D01*
X011125Y014288D02*
X010680Y014288D01*
X010634Y014447D02*
X010966Y014447D01*
X010808Y014605D02*
X010501Y014605D01*
X010344Y014832D02*
X010498Y014896D01*
X010616Y015014D01*
X010680Y015169D01*
X010680Y015336D01*
X010616Y015490D01*
X010498Y015608D01*
X010344Y015672D01*
X009656Y015672D01*
X009632Y015662D01*
X009124Y015662D01*
X007761Y016571D01*
X007732Y016600D01*
X007694Y016616D01*
X007660Y016639D01*
X007619Y016647D01*
X007582Y016662D01*
X007540Y016662D01*
X007500Y016670D01*
X007459Y016662D01*
X006440Y016662D01*
X006368Y016692D01*
X005632Y016692D01*
X005471Y016625D01*
X005347Y016502D01*
X005280Y016340D01*
X005280Y016165D01*
X005347Y016003D01*
X005471Y015879D01*
X005632Y015812D01*
X006368Y015812D01*
X006440Y015842D01*
X007376Y015842D01*
X008739Y014934D01*
X008768Y014905D01*
X008806Y014889D01*
X008840Y014866D01*
X008881Y014858D01*
X008918Y014842D01*
X008960Y014842D01*
X009000Y014834D01*
X009041Y014842D01*
X009632Y014842D01*
X009656Y014832D01*
X010344Y014832D01*
X010524Y014922D02*
X010760Y014922D01*
X010760Y014764D02*
X004828Y014764D01*
X004669Y014922D02*
X008750Y014922D01*
X008518Y015081D02*
X004511Y015081D01*
X004352Y015239D02*
X008280Y015239D01*
X008043Y015398D02*
X004240Y015398D01*
X004240Y015556D02*
X007805Y015556D01*
X007567Y015715D02*
X004240Y015715D01*
X004240Y015873D02*
X005485Y015873D01*
X005335Y016032D02*
X004240Y016032D01*
X004240Y016190D02*
X005280Y016190D01*
X005284Y016349D02*
X004220Y016349D01*
X004084Y016507D02*
X005353Y016507D01*
X005569Y016666D02*
X003926Y016666D01*
X003767Y016824D02*
X005603Y016824D01*
X005632Y016812D02*
X005471Y016879D01*
X005347Y017003D01*
X005280Y017165D01*
X005280Y017340D01*
X005347Y017502D01*
X005471Y017625D01*
X005632Y017692D01*
X006368Y017692D01*
X006440Y017662D01*
X007376Y017662D01*
X008739Y018571D01*
X008768Y018600D01*
X008806Y018616D01*
X008840Y018639D01*
X008881Y018647D01*
X008918Y018662D01*
X008960Y018662D01*
X009000Y018670D01*
X009041Y018662D01*
X009632Y018662D01*
X009656Y018672D01*
X010344Y018672D01*
X010498Y018608D01*
X010616Y018490D01*
X010680Y018336D01*
X010680Y018169D01*
X010616Y018014D01*
X010498Y017896D01*
X010344Y017832D01*
X009656Y017832D01*
X009632Y017842D01*
X009124Y017842D01*
X007761Y016934D01*
X007732Y016905D01*
X007694Y016889D01*
X007660Y016866D01*
X007619Y016858D01*
X007582Y016842D01*
X007540Y016842D01*
X007500Y016834D01*
X007459Y016842D01*
X006440Y016842D01*
X006368Y016812D01*
X005632Y016812D01*
X005367Y016983D02*
X003609Y016983D01*
X003450Y017141D02*
X005290Y017141D01*
X005280Y017300D02*
X003292Y017300D01*
X003130Y017458D02*
X005329Y017458D01*
X005462Y017617D02*
X001885Y017617D01*
X001733Y017775D02*
X007545Y017775D01*
X007783Y017934D02*
X001931Y017934D01*
X001500Y018252D02*
X007000Y018252D01*
X008500Y019252D01*
X010000Y019252D01*
X010470Y018885D02*
X010760Y018885D01*
X010760Y019043D02*
X010628Y019043D01*
X010680Y019202D02*
X010711Y019202D01*
X011000Y019252D02*
X011000Y014752D01*
X011500Y014252D01*
X013000Y014252D01*
X012499Y014605D02*
X011486Y014605D01*
X011328Y014764D02*
X017760Y014764D01*
X018240Y014764D02*
X021512Y014764D01*
X021512Y014922D02*
X018240Y014922D01*
X018240Y014605D02*
X021512Y014605D01*
X021512Y014447D02*
X018240Y014447D01*
X018240Y014288D02*
X021512Y014288D01*
X021512Y014130D02*
X018240Y014130D01*
X018240Y013971D02*
X021512Y013971D01*
X021512Y013813D02*
X018240Y013813D01*
X018240Y013654D02*
X021512Y013654D01*
X021512Y013496D02*
X018240Y013496D01*
X018240Y013337D02*
X021512Y013337D01*
X021512Y013179D02*
X018240Y013179D01*
X018240Y013020D02*
X021512Y013020D01*
X021512Y012862D02*
X018240Y012862D01*
X018172Y012703D02*
X021512Y012703D01*
X021512Y012545D02*
X018014Y012545D01*
X017855Y012386D02*
X021512Y012386D01*
X021512Y012228D02*
X017697Y012228D01*
X017538Y012069D02*
X021512Y012069D01*
X017494Y012703D02*
X011888Y012703D01*
X012047Y012545D02*
X017335Y012545D01*
X020998Y017934D02*
X021512Y017934D01*
X021512Y018092D02*
X020910Y018092D01*
X020727Y018251D02*
X021512Y018251D01*
X021512Y018409D02*
X020931Y018409D01*
X021018Y018568D02*
X021512Y018568D01*
X021512Y018726D02*
X021050Y018726D01*
X021035Y018885D02*
X021512Y018885D01*
X021512Y019043D02*
X020968Y019043D01*
X020817Y019202D02*
X021512Y019202D01*
X021512Y019360D02*
X020886Y019360D01*
X020998Y019519D02*
X021512Y019519D01*
X021512Y019677D02*
X021045Y019677D01*
X021044Y019836D02*
X021512Y019836D01*
X021512Y019994D02*
X020994Y019994D01*
X020877Y020153D02*
X021512Y020153D01*
X021512Y020311D02*
X020809Y020311D01*
X020957Y020470D02*
X021512Y020470D01*
X021512Y020628D02*
X021022Y020628D01*
X021030Y020787D02*
X021512Y020787D01*
X021512Y020945D02*
X020994Y020945D01*
X020898Y021104D02*
X021512Y021104D01*
X021512Y021262D02*
X020654Y021262D01*
X020346Y021262D02*
X019570Y021262D01*
X019411Y021421D02*
X021512Y021421D01*
X021512Y021579D02*
X019253Y021579D01*
X019094Y021738D02*
X021512Y021738D01*
X021512Y021896D02*
X018936Y021896D01*
X018777Y022055D02*
X021512Y022055D01*
X021512Y022213D02*
X018619Y022213D01*
X018460Y022372D02*
X020131Y022372D01*
X020018Y022530D02*
X018302Y022530D01*
X018143Y022689D02*
X019970Y022689D01*
X019970Y022847D02*
X017985Y022847D01*
X017826Y023006D02*
X020031Y023006D01*
X020162Y023164D02*
X017668Y023164D01*
X017509Y023323D02*
X020180Y023323D01*
X020039Y023481D02*
X017410Y023481D01*
X017410Y023640D02*
X019973Y023640D01*
X019970Y023798D02*
X017410Y023798D01*
X017410Y023957D02*
X020011Y023957D01*
X020113Y024115D02*
X017410Y024115D01*
X017410Y024274D02*
X020270Y024274D01*
X020070Y024432D02*
X017410Y024432D01*
X017410Y024591D02*
X019993Y024591D01*
X019970Y024749D02*
X017410Y024749D01*
X017410Y024908D02*
X019991Y024908D01*
X020064Y025066D02*
X017410Y025066D01*
X017410Y025225D02*
X020256Y025225D01*
X020119Y025383D02*
X017410Y025383D01*
X017410Y025542D02*
X020014Y025542D01*
X019970Y025700D02*
X017410Y025700D01*
X017410Y025859D02*
X019970Y025859D01*
X020036Y026017D02*
X017410Y026017D01*
X017410Y026176D02*
X020174Y026176D01*
X020168Y026334D02*
X017419Y026334D01*
X017440Y026493D02*
X020034Y026493D01*
X019970Y026651D02*
X017440Y026651D01*
X017440Y026810D02*
X019970Y026810D01*
X020016Y026968D02*
X017440Y026968D01*
X017437Y027127D02*
X020125Y027127D01*
X020242Y027285D02*
X017410Y027285D01*
X017364Y027444D02*
X020059Y027444D01*
X019988Y027602D02*
X017230Y027602D01*
X017071Y027761D02*
X019970Y027761D01*
X019996Y027919D02*
X016913Y027919D01*
X016754Y028078D02*
X020076Y028078D01*
X020758Y027285D02*
X021512Y027285D01*
X021512Y027127D02*
X020875Y027127D01*
X020984Y026968D02*
X021512Y026968D01*
X021512Y026810D02*
X021030Y026810D01*
X021030Y026651D02*
X021512Y026651D01*
X021512Y026493D02*
X020966Y026493D01*
X020832Y026334D02*
X021512Y026334D01*
X021512Y026176D02*
X020826Y026176D01*
X020964Y026017D02*
X021512Y026017D01*
X021512Y025859D02*
X021030Y025859D01*
X021030Y025700D02*
X021512Y025700D01*
X021512Y025542D02*
X020986Y025542D01*
X020881Y025383D02*
X021512Y025383D01*
X021512Y025225D02*
X020744Y025225D01*
X020936Y025066D02*
X021512Y025066D01*
X021512Y024908D02*
X021009Y024908D01*
X021030Y024749D02*
X021512Y024749D01*
X021512Y024591D02*
X021007Y024591D01*
X020930Y024432D02*
X021512Y024432D01*
X021512Y024274D02*
X020730Y024274D01*
X020887Y024115D02*
X021512Y024115D01*
X021512Y023957D02*
X020989Y023957D01*
X021030Y023798D02*
X021512Y023798D01*
X021512Y023640D02*
X021027Y023640D01*
X020961Y023481D02*
X021512Y023481D01*
X021512Y023323D02*
X020820Y023323D01*
X020838Y023164D02*
X021512Y023164D01*
X021512Y023006D02*
X020969Y023006D01*
X021030Y022847D02*
X021512Y022847D01*
X021512Y022689D02*
X021030Y022689D01*
X020982Y022530D02*
X021512Y022530D01*
X021512Y022372D02*
X020869Y022372D01*
X020191Y020311D02*
X013932Y020311D01*
X013773Y020153D02*
X020123Y020153D01*
X020006Y019994D02*
X013615Y019994D01*
X013352Y019836D02*
X019956Y019836D01*
X019955Y019677D02*
X011914Y019677D01*
X011756Y019836D02*
X012648Y019836D01*
X012404Y019994D02*
X011740Y019994D01*
X011740Y020153D02*
X012327Y020153D01*
X012320Y020311D02*
X011735Y020311D01*
X011622Y020470D02*
X012375Y020470D01*
X012550Y020628D02*
X011463Y020628D01*
X011305Y020787D02*
X013248Y020787D01*
X013406Y020945D02*
X011146Y020945D01*
X010988Y021104D02*
X013565Y021104D01*
X013723Y021262D02*
X010829Y021262D01*
X010671Y021421D02*
X014589Y021421D01*
X014747Y021579D02*
X010512Y021579D01*
X010354Y021738D02*
X014906Y021738D01*
X015064Y021896D02*
X010195Y021896D01*
X010037Y022055D02*
X015223Y022055D01*
X015381Y022213D02*
X009878Y022213D01*
X009720Y022372D02*
X015540Y022372D01*
X015698Y022530D02*
X009561Y022530D01*
X009403Y022689D02*
X015857Y022689D01*
X016015Y022847D02*
X009244Y022847D01*
X009000Y022752D02*
X011500Y020252D01*
X011500Y019752D01*
X012000Y019252D01*
X013000Y019252D01*
X013470Y018885D02*
X019965Y018885D01*
X019950Y018726D02*
X011240Y018726D01*
X011240Y018568D02*
X012462Y018568D01*
X012350Y018409D02*
X011240Y018409D01*
X011240Y018251D02*
X012320Y018251D01*
X012352Y018092D02*
X011240Y018092D01*
X011240Y017934D02*
X012465Y017934D01*
X013000Y017692D02*
X013000Y017252D01*
X013000Y017252D01*
X013000Y017692D01*
X013000Y017617D02*
X013000Y017617D01*
X013000Y017458D02*
X013000Y017458D01*
X013000Y017300D02*
X013000Y017300D01*
X013000Y017141D02*
X013000Y017141D01*
X013000Y016983D02*
X013000Y016983D01*
X013000Y016824D02*
X013000Y016824D01*
X013000Y016692D02*
X013000Y016252D01*
X013000Y016252D01*
X013000Y016692D01*
X013000Y016666D02*
X013000Y016666D01*
X013000Y016507D02*
X013000Y016507D01*
X013000Y016349D02*
X013000Y016349D01*
X013000Y016190D02*
X013000Y016190D01*
X013000Y016032D02*
X013000Y016032D01*
X013000Y015873D02*
X013000Y015873D01*
X012450Y015556D02*
X011240Y015556D01*
X011240Y015398D02*
X012346Y015398D01*
X012320Y015239D02*
X011240Y015239D01*
X011240Y015081D02*
X012356Y015081D01*
X012476Y014922D02*
X011240Y014922D01*
X010760Y015081D02*
X010644Y015081D01*
X010680Y015239D02*
X010760Y015239D01*
X010760Y015398D02*
X010654Y015398D01*
X010550Y015556D02*
X010760Y015556D01*
X010760Y015715D02*
X009045Y015715D01*
X008808Y015873D02*
X009515Y015873D01*
X009509Y015876D02*
X009571Y015845D01*
X009637Y015823D01*
X009705Y015812D01*
X010000Y015812D01*
X010295Y015812D01*
X010363Y015823D01*
X010429Y015845D01*
X010491Y015876D01*
X010547Y015917D01*
X010596Y015966D01*
X010636Y016022D01*
X010668Y016083D01*
X010689Y016149D01*
X010700Y016218D01*
X010700Y016252D01*
X010000Y016252D01*
X010000Y015812D01*
X010000Y016252D01*
X010000Y016252D01*
X010000Y016252D01*
X009300Y016252D01*
X009300Y016218D01*
X009311Y016149D01*
X009332Y016083D01*
X009364Y016022D01*
X009404Y015966D01*
X009453Y015917D01*
X009509Y015876D01*
X009359Y016032D02*
X008570Y016032D01*
X008332Y016190D02*
X009304Y016190D01*
X009300Y016252D02*
X010000Y016252D01*
X010000Y016252D01*
X010700Y016252D01*
X010700Y016287D01*
X010689Y016355D01*
X010668Y016421D01*
X010636Y016483D01*
X010596Y016539D01*
X010547Y016588D01*
X010491Y016629D01*
X010429Y016660D01*
X010363Y016682D01*
X010295Y016692D01*
X010000Y016692D01*
X009705Y016692D01*
X009637Y016682D01*
X009571Y016660D01*
X009509Y016629D01*
X009453Y016588D01*
X009404Y016539D01*
X009364Y016483D01*
X009332Y016421D01*
X009311Y016355D01*
X009300Y016287D01*
X009300Y016252D01*
X009310Y016349D02*
X008094Y016349D01*
X007857Y016507D02*
X009381Y016507D01*
X009589Y016666D02*
X007522Y016666D01*
X007477Y016666D02*
X006431Y016666D01*
X006397Y016824D02*
X009633Y016824D01*
X009637Y016823D02*
X009705Y016812D01*
X010000Y016812D01*
X010295Y016812D01*
X010363Y016823D01*
X010429Y016845D01*
X010491Y016876D01*
X010547Y016917D01*
X010596Y016966D01*
X010636Y017022D01*
X010668Y017083D01*
X010689Y017149D01*
X010700Y017218D01*
X010700Y017252D01*
X010000Y017252D01*
X010000Y016812D01*
X010000Y017252D01*
X010000Y017252D01*
X010000Y017252D01*
X009300Y017252D01*
X009300Y017218D01*
X009311Y017149D01*
X009332Y017083D01*
X009364Y017022D01*
X009404Y016966D01*
X009453Y016917D01*
X009509Y016876D01*
X009571Y016845D01*
X009637Y016823D01*
X009392Y016983D02*
X007835Y016983D01*
X008073Y017141D02*
X009313Y017141D01*
X009300Y017252D02*
X010000Y017252D01*
X010000Y017252D01*
X010700Y017252D01*
X010700Y017287D01*
X010689Y017355D01*
X010668Y017421D01*
X010636Y017483D01*
X010596Y017539D01*
X010547Y017588D01*
X010491Y017629D01*
X010429Y017660D01*
X010363Y017682D01*
X010295Y017692D01*
X010000Y017692D01*
X009705Y017692D01*
X009637Y017682D01*
X009571Y017660D01*
X009509Y017629D01*
X009453Y017588D01*
X009404Y017539D01*
X009364Y017483D01*
X009332Y017421D01*
X009311Y017355D01*
X009300Y017287D01*
X009300Y017252D01*
X009302Y017300D02*
X008310Y017300D01*
X008548Y017458D02*
X009351Y017458D01*
X009493Y017617D02*
X008786Y017617D01*
X009024Y017775D02*
X010760Y017775D01*
X010760Y017617D02*
X010507Y017617D01*
X010649Y017458D02*
X010760Y017458D01*
X010760Y017300D02*
X010698Y017300D01*
X010687Y017141D02*
X010760Y017141D01*
X010760Y016983D02*
X010608Y016983D01*
X010760Y016824D02*
X010367Y016824D01*
X010411Y016666D02*
X010760Y016666D01*
X010760Y016507D02*
X010619Y016507D01*
X010690Y016349D02*
X010760Y016349D01*
X010760Y016190D02*
X010696Y016190D01*
X010641Y016032D02*
X010760Y016032D01*
X010760Y015873D02*
X010485Y015873D01*
X010000Y015873D02*
X010000Y015873D01*
X010000Y016032D02*
X010000Y016032D01*
X010000Y016190D02*
X010000Y016190D01*
X010000Y016252D02*
X010000Y016692D01*
X010000Y016252D01*
X010000Y016252D01*
X010000Y016349D02*
X010000Y016349D01*
X010000Y016507D02*
X010000Y016507D01*
X010000Y016666D02*
X010000Y016666D01*
X010000Y016824D02*
X010000Y016824D01*
X010000Y016983D02*
X010000Y016983D01*
X010000Y017141D02*
X010000Y017141D01*
X010000Y017252D02*
X010000Y017692D01*
X010000Y017252D01*
X010000Y017252D01*
X010000Y017300D02*
X010000Y017300D01*
X010000Y017458D02*
X010000Y017458D01*
X010000Y017617D02*
X010000Y017617D01*
X010535Y017934D02*
X010760Y017934D01*
X010760Y018092D02*
X010648Y018092D01*
X010680Y018251D02*
X010760Y018251D01*
X010760Y018409D02*
X010650Y018409D01*
X010760Y018568D02*
X010538Y018568D01*
X010760Y018726D02*
X008144Y018726D01*
X008381Y018885D02*
X009530Y018885D01*
X008734Y018568D02*
X007906Y018568D01*
X007668Y018409D02*
X008496Y018409D01*
X008259Y018251D02*
X007430Y018251D01*
X007193Y018092D02*
X008021Y018092D01*
X007000Y019752D02*
X010500Y019752D01*
X011000Y019252D01*
X011215Y019360D02*
X011553Y019360D01*
X011711Y019202D02*
X011240Y019202D01*
X011240Y019043D02*
X011877Y019043D01*
X012073Y019519D02*
X012413Y019519D01*
X012530Y018885D02*
X011240Y018885D01*
X011394Y019519D02*
X011073Y019519D01*
X010914Y019677D02*
X011271Y019677D01*
X011260Y019836D02*
X010756Y019836D01*
X010596Y019994D02*
X011260Y019994D01*
X011260Y020153D02*
X010673Y020153D01*
X010680Y020311D02*
X011102Y020311D01*
X010943Y020470D02*
X010625Y020470D01*
X010785Y020628D02*
X010450Y020628D01*
X010626Y020787D02*
X008305Y020787D01*
X008146Y020945D02*
X010468Y020945D01*
X010309Y021104D02*
X007988Y021104D01*
X007829Y021262D02*
X010151Y021262D01*
X009992Y021421D02*
X007671Y021421D01*
X007512Y021579D02*
X009834Y021579D01*
X009675Y021738D02*
X007354Y021738D01*
X007195Y021896D02*
X009517Y021896D01*
X009358Y022055D02*
X001947Y022055D01*
X001772Y022213D02*
X009200Y022213D01*
X009041Y022372D02*
X001869Y022372D01*
X001500Y022752D02*
X009000Y022752D01*
X010500Y023752D02*
X011500Y024752D01*
X011500Y025752D01*
X011940Y025700D02*
X012060Y025700D01*
X012060Y025542D02*
X011940Y025542D01*
X011939Y025383D02*
X012061Y025383D01*
X012126Y025225D02*
X011874Y025225D01*
X011740Y025066D02*
X012330Y025066D01*
X012670Y025066D02*
X016590Y025066D01*
X016590Y024908D02*
X011740Y024908D01*
X011740Y024749D02*
X016590Y024749D01*
X016590Y024591D02*
X011678Y024591D01*
X011519Y024432D02*
X016590Y024432D01*
X016590Y024274D02*
X011361Y024274D01*
X011202Y024115D02*
X016590Y024115D01*
X016590Y023957D02*
X011044Y023957D01*
X010885Y023798D02*
X016590Y023798D01*
X016590Y023640D02*
X010727Y023640D01*
X010500Y023752D02*
X004500Y023752D01*
X003500Y024752D01*
X001500Y024752D01*
X001730Y024274D02*
X003639Y024274D01*
X003481Y024432D02*
X001930Y024432D01*
X001887Y024115D02*
X003798Y024115D01*
X003956Y023957D02*
X001989Y023957D01*
X002030Y023798D02*
X004115Y023798D01*
X004273Y023640D02*
X002027Y023640D01*
X001961Y023481D02*
X016590Y023481D01*
X016491Y023323D02*
X001820Y023323D01*
X001838Y023164D02*
X016332Y023164D01*
X016174Y023006D02*
X001969Y023006D01*
X001500Y021752D02*
X007000Y021752D01*
X008500Y020252D01*
X010000Y020252D01*
X009550Y020628D02*
X008463Y020628D01*
X007000Y019752D02*
X006000Y020752D01*
X001500Y020752D01*
X001500Y017252D02*
X003000Y017252D01*
X004000Y016252D01*
X004000Y015252D01*
X005000Y014252D01*
X010000Y014252D01*
X009499Y014605D02*
X004986Y014605D01*
X004500Y013752D02*
X011500Y013752D01*
X012000Y013252D01*
X011598Y013971D02*
X012427Y013971D01*
X009585Y012862D02*
X001887Y012862D01*
X001999Y013020D02*
X009381Y013020D01*
X009320Y013179D02*
X002045Y013179D01*
X002043Y013337D02*
X009321Y013337D01*
X009390Y013496D02*
X001993Y013496D01*
X001876Y013654D02*
X004259Y013654D01*
X004100Y013813D02*
X001810Y013813D01*
X001957Y013971D02*
X003942Y013971D01*
X003783Y014130D02*
X002023Y014130D01*
X002030Y014288D02*
X003625Y014288D01*
X003466Y014447D02*
X001993Y014447D01*
X001897Y014605D02*
X003308Y014605D01*
X003260Y014764D02*
X001706Y014764D01*
X001920Y014922D02*
X003260Y014922D01*
X003260Y015081D02*
X002003Y015081D01*
X002030Y015239D02*
X003260Y015239D01*
X003260Y015398D02*
X002013Y015398D01*
X001946Y015556D02*
X003260Y015556D01*
X003198Y015715D02*
X001768Y015715D01*
X001871Y015873D02*
X003040Y015873D01*
X003000Y016252D02*
X003500Y015752D01*
X003500Y014752D01*
X004500Y013752D01*
X003000Y016252D02*
X001500Y016252D01*
X004476Y024115D02*
X010524Y024115D01*
X010682Y024274D02*
X004318Y024274D01*
X004159Y024432D02*
X010841Y024432D01*
X010999Y024591D02*
X004001Y024591D01*
X003842Y024749D02*
X011158Y024749D01*
X011260Y024908D02*
X003684Y024908D01*
X002946Y025859D02*
X005040Y025859D01*
X005040Y025762D02*
X005490Y025762D01*
X005490Y025742D01*
X005510Y025742D01*
X005510Y025012D01*
X005536Y025012D01*
X005608Y025024D01*
X005677Y025046D01*
X005741Y025079D01*
X005800Y025121D01*
X005851Y025173D01*
X005893Y025231D01*
X005926Y025296D01*
X005949Y025365D01*
X005960Y025436D01*
X005960Y025742D01*
X005510Y025742D01*
X005510Y025762D01*
X005960Y025762D01*
X005960Y026069D01*
X005949Y026140D01*
X005926Y026209D01*
X005893Y026273D01*
X005851Y026332D01*
X005800Y026383D01*
X005741Y026426D01*
X005677Y026459D01*
X005608Y026481D01*
X005536Y026492D01*
X005510Y026492D01*
X005510Y025762D01*
X005490Y025762D01*
X005490Y026492D01*
X005464Y026492D01*
X005392Y026481D01*
X005323Y026459D01*
X005259Y026426D01*
X005200Y026383D01*
X005149Y026332D01*
X005107Y026273D01*
X005074Y026209D01*
X005051Y026140D01*
X005040Y026069D01*
X005040Y025762D01*
X005040Y025742D02*
X005040Y025436D01*
X005051Y025365D01*
X005074Y025296D01*
X005107Y025231D01*
X005149Y025173D01*
X005200Y025121D01*
X005259Y025079D01*
X005323Y025046D01*
X005392Y025024D01*
X005464Y025012D01*
X005490Y025012D01*
X005490Y025742D01*
X005040Y025742D01*
X005040Y025700D02*
X002787Y025700D01*
X002619Y025542D02*
X005040Y025542D01*
X005048Y025383D02*
X001881Y025383D01*
X001744Y025225D02*
X005111Y025225D01*
X005284Y025066D02*
X001936Y025066D01*
X001500Y025752D02*
X002500Y025752D01*
X004000Y027252D01*
X006000Y027252D01*
X006500Y026752D01*
X006500Y025752D01*
X006940Y025700D02*
X007060Y025700D01*
X007060Y025542D02*
X006940Y025542D01*
X006939Y025383D02*
X007061Y025383D01*
X007126Y025225D02*
X006874Y025225D01*
X006670Y025066D02*
X007330Y025066D01*
X007670Y025066D02*
X010284Y025066D01*
X010259Y025079D02*
X010323Y025046D01*
X010392Y025024D01*
X010464Y025012D01*
X010490Y025012D01*
X010490Y025742D01*
X010510Y025742D01*
X010510Y025012D01*
X010536Y025012D01*
X010608Y025024D01*
X010677Y025046D01*
X010741Y025079D01*
X010800Y025121D01*
X010851Y025173D01*
X010893Y025231D01*
X010926Y025296D01*
X010949Y025365D01*
X010960Y025436D01*
X010960Y025742D01*
X010510Y025742D01*
X010510Y025762D01*
X010960Y025762D01*
X010960Y026069D01*
X010949Y026140D01*
X010926Y026209D01*
X010893Y026273D01*
X010851Y026332D01*
X010800Y026383D01*
X010741Y026426D01*
X010677Y026459D01*
X010608Y026481D01*
X010536Y026492D01*
X010510Y026492D01*
X010510Y025762D01*
X010490Y025762D01*
X010490Y025742D01*
X010040Y025742D01*
X010040Y025436D01*
X010051Y025365D01*
X010074Y025296D01*
X010107Y025231D01*
X010149Y025173D01*
X010200Y025121D01*
X010259Y025079D01*
X010111Y025225D02*
X007874Y025225D01*
X007939Y025383D02*
X010048Y025383D01*
X010040Y025542D02*
X007940Y025542D01*
X007940Y025700D02*
X010040Y025700D01*
X010040Y025762D02*
X010490Y025762D01*
X010490Y026492D01*
X010464Y026492D01*
X010392Y026481D01*
X010323Y026459D01*
X010259Y026426D01*
X010200Y026383D01*
X010149Y026332D01*
X010107Y026273D01*
X010074Y026209D01*
X010051Y026140D01*
X010040Y026069D01*
X010040Y025762D01*
X010040Y025859D02*
X007940Y025859D01*
X007940Y026017D02*
X010040Y026017D01*
X010063Y026176D02*
X007917Y026176D01*
X007910Y026334D02*
X010151Y026334D01*
X010490Y026334D02*
X010510Y026334D01*
X010510Y026176D02*
X010490Y026176D01*
X010490Y026017D02*
X010510Y026017D01*
X010510Y025859D02*
X010490Y025859D01*
X010490Y025700D02*
X010510Y025700D01*
X010510Y025542D02*
X010490Y025542D01*
X010490Y025383D02*
X010510Y025383D01*
X010510Y025225D02*
X010490Y025225D01*
X010490Y025066D02*
X010510Y025066D01*
X010716Y025066D02*
X011260Y025066D01*
X011126Y025225D02*
X010889Y025225D01*
X010952Y025383D02*
X011061Y025383D01*
X011060Y025542D02*
X010960Y025542D01*
X010960Y025700D02*
X011060Y025700D01*
X011060Y025859D02*
X010960Y025859D01*
X010960Y026017D02*
X011060Y026017D01*
X011083Y026176D02*
X010937Y026176D01*
X010849Y026334D02*
X011180Y026334D01*
X011704Y026968D02*
X008296Y026968D01*
X008137Y026810D02*
X011863Y026810D01*
X012021Y026651D02*
X007979Y026651D01*
X007910Y026493D02*
X012090Y026493D01*
X012090Y026334D02*
X011820Y026334D01*
X011917Y026176D02*
X012083Y026176D01*
X012060Y026017D02*
X011940Y026017D01*
X011940Y025859D02*
X012060Y025859D01*
X012940Y025859D02*
X016590Y025859D01*
X016590Y026017D02*
X016068Y026017D01*
X016010Y026017D02*
X015990Y026017D01*
X015990Y026012D02*
X015964Y026012D01*
X015892Y026024D01*
X015823Y026046D01*
X015759Y026079D01*
X015700Y026121D01*
X015649Y026173D01*
X015607Y026231D01*
X015574Y026296D01*
X015551Y026365D01*
X015540Y026436D01*
X015540Y026742D01*
X015990Y026742D01*
X015990Y026012D01*
X015932Y026017D02*
X012940Y026017D01*
X012917Y026176D02*
X015647Y026176D01*
X015561Y026334D02*
X012910Y026334D01*
X012910Y026493D02*
X015540Y026493D01*
X015540Y026651D02*
X012979Y026651D01*
X013137Y026810D02*
X015540Y026810D01*
X015540Y026968D02*
X013296Y026968D01*
X013454Y027127D02*
X015549Y027127D01*
X015615Y027285D02*
X013613Y027285D01*
X012940Y025700D02*
X016590Y025700D01*
X016590Y025542D02*
X012940Y025542D01*
X012939Y025383D02*
X016590Y025383D01*
X016590Y025225D02*
X012874Y025225D01*
X011546Y027127D02*
X008454Y027127D01*
X008613Y027285D02*
X011387Y027285D01*
X008246Y028078D02*
X001924Y028078D01*
X002004Y027919D02*
X008087Y027919D01*
X007929Y027761D02*
X002030Y027761D01*
X002012Y027602D02*
X007770Y027602D01*
X007612Y027444D02*
X006148Y027444D01*
X006306Y027285D02*
X007453Y027285D01*
X007295Y027127D02*
X006465Y027127D01*
X006623Y026968D02*
X007146Y026968D01*
X007090Y026810D02*
X006736Y026810D01*
X006740Y026651D02*
X007090Y026651D01*
X007090Y026493D02*
X006740Y026493D01*
X006820Y026334D02*
X007090Y026334D01*
X007083Y026176D02*
X006917Y026176D01*
X006940Y026017D02*
X007060Y026017D01*
X007060Y025859D02*
X006940Y025859D01*
X006260Y026493D02*
X003580Y026493D01*
X003738Y026651D02*
X006260Y026651D01*
X006103Y026810D02*
X003897Y026810D01*
X004055Y026968D02*
X005945Y026968D01*
X005849Y026334D02*
X006180Y026334D01*
X006083Y026176D02*
X005937Y026176D01*
X005960Y026017D02*
X006060Y026017D01*
X006060Y025859D02*
X005960Y025859D01*
X005960Y025700D02*
X006060Y025700D01*
X006060Y025542D02*
X005960Y025542D01*
X005952Y025383D02*
X006061Y025383D01*
X006126Y025225D02*
X005889Y025225D01*
X005716Y025066D02*
X006330Y025066D01*
X005510Y025066D02*
X005490Y025066D01*
X005490Y025225D02*
X005510Y025225D01*
X005510Y025383D02*
X005490Y025383D01*
X005490Y025542D02*
X005510Y025542D01*
X005510Y025700D02*
X005490Y025700D01*
X005490Y025859D02*
X005510Y025859D01*
X005510Y026017D02*
X005490Y026017D01*
X005490Y026176D02*
X005510Y026176D01*
X005510Y026334D02*
X005490Y026334D01*
X005151Y026334D02*
X003421Y026334D01*
X003263Y026176D02*
X005063Y026176D01*
X005040Y026017D02*
X003104Y026017D01*
X002743Y026334D02*
X001832Y026334D01*
X001826Y026176D02*
X002584Y026176D01*
X002426Y026017D02*
X001964Y026017D01*
X001966Y026493D02*
X002901Y026493D01*
X003060Y026651D02*
X002030Y026651D01*
X002030Y026810D02*
X003218Y026810D01*
X003377Y026968D02*
X001984Y026968D01*
X001875Y027127D02*
X003535Y027127D01*
X003694Y027285D02*
X001758Y027285D01*
X001941Y027444D02*
X003852Y027444D01*
X013587Y019519D02*
X020002Y019519D01*
X020114Y019360D02*
X013670Y019360D01*
X013680Y019202D02*
X020183Y019202D01*
X020032Y019043D02*
X013628Y019043D01*
X014264Y018568D02*
X019982Y018568D01*
X020069Y018409D02*
X014423Y018409D01*
X014581Y018251D02*
X020273Y018251D01*
X020480Y018885D02*
X020520Y018885D01*
X020520Y019043D02*
X020480Y019043D01*
X020480Y019360D02*
X020520Y019360D01*
X020520Y019519D02*
X020480Y019519D01*
X020480Y019677D02*
X020520Y019677D01*
X019203Y020470D02*
X014090Y020470D01*
X014956Y020628D02*
X019044Y020628D01*
X018886Y020787D02*
X015114Y020787D01*
X015273Y020945D02*
X018727Y020945D01*
X018569Y021104D02*
X015431Y021104D01*
X015590Y021262D02*
X018410Y021262D01*
X018252Y021421D02*
X015748Y021421D01*
X015907Y021579D02*
X018093Y021579D01*
X017935Y021738D02*
X016065Y021738D01*
X016224Y021896D02*
X017776Y021896D01*
X017618Y022055D02*
X016382Y022055D01*
X016541Y022213D02*
X017459Y022213D01*
X017301Y022372D02*
X016699Y022372D01*
X016858Y022530D02*
X017142Y022530D01*
X016590Y026176D02*
X016353Y026176D01*
X016439Y026334D02*
X016581Y026334D01*
X016560Y026493D02*
X016460Y026493D01*
X016460Y026651D02*
X016560Y026651D01*
X016560Y026810D02*
X016460Y026810D01*
X016460Y026968D02*
X016560Y026968D01*
X016546Y027127D02*
X016451Y027127D01*
X016387Y027285D02*
X016385Y027285D01*
X016010Y026651D02*
X015990Y026651D01*
X015990Y026493D02*
X016010Y026493D01*
X016010Y026334D02*
X015990Y026334D01*
X015990Y026176D02*
X016010Y026176D01*
X020941Y027444D02*
X021512Y027444D01*
X021512Y027602D02*
X021012Y027602D01*
X021030Y027761D02*
X021512Y027761D01*
X021512Y027919D02*
X021004Y027919D01*
X020924Y028078D02*
X021512Y028078D01*
D14*
X017000Y027252D02*
X017000Y026752D01*
X017000Y023252D01*
X014707Y020959D01*
X014000Y020959D01*
X013293Y020252D01*
X013000Y020252D01*
X013000Y018252D02*
X014000Y018252D01*
X015000Y017252D01*
X016000Y017252D01*
X016000Y016252D02*
X015000Y016252D01*
X014000Y015252D01*
X013000Y015252D01*
X010000Y015252D02*
X009000Y015252D01*
X007500Y016252D01*
X006000Y016252D01*
X006000Y017252D02*
X007500Y017252D01*
X009000Y018252D01*
X010000Y018252D01*
X007500Y025752D02*
X007500Y026752D01*
X008500Y027752D01*
X011500Y027752D01*
X012500Y026752D01*
X013500Y027752D01*
X016500Y027752D01*
X017000Y027252D01*
X017000Y023252D02*
X019500Y020752D01*
X020500Y020752D01*
X012500Y025752D02*
X012500Y026752D01*
M02*
