G75*
G70*
%OFA0B0*%
%FSLAX24Y24*%
%IPPOS*%
%LPD*%
%AMOC8*
5,1,8,0,0,1.08239X$1,22.5*
%
%ADD10C,0.0060*%
%ADD11C,0.0050*%
D10*
X002130Y012082D02*
X002130Y012309D01*
X002243Y012423D01*
X002357Y012309D01*
X002357Y012082D01*
X002498Y012082D02*
X002498Y012423D01*
X002668Y012423D01*
X002725Y012366D01*
X002725Y012253D01*
X002668Y012196D01*
X002498Y012196D01*
X002612Y012196D02*
X002725Y012082D01*
X002867Y012082D02*
X003093Y012082D01*
X003235Y012082D02*
X003235Y012423D01*
X003462Y012423D01*
X003348Y012253D02*
X003235Y012253D01*
X003093Y012423D02*
X002867Y012423D01*
X002867Y012082D01*
X002867Y012253D02*
X002980Y012253D01*
X002357Y012253D02*
X002130Y012253D01*
X002187Y013082D02*
X002300Y013082D01*
X002357Y013139D01*
X002357Y013253D01*
X002243Y013253D01*
X002130Y013366D02*
X002130Y013139D01*
X002187Y013082D01*
X002130Y013366D02*
X002187Y013423D01*
X002300Y013423D01*
X002357Y013366D01*
X002498Y013423D02*
X002498Y013082D01*
X002725Y013082D02*
X002498Y013423D01*
X002725Y013423D02*
X002725Y013082D01*
X002867Y013082D02*
X003037Y013082D01*
X003093Y013139D01*
X003093Y013366D01*
X003037Y013423D01*
X002867Y013423D01*
X002867Y013082D01*
X002668Y014082D02*
X002555Y014082D01*
X002498Y014139D01*
X002357Y014082D02*
X002130Y014082D01*
X002243Y014082D02*
X002243Y014423D01*
X002130Y014309D01*
X002498Y014366D02*
X002555Y014423D01*
X002668Y014423D01*
X002725Y014366D01*
X002725Y014309D01*
X002668Y014253D01*
X002725Y014196D01*
X002725Y014139D01*
X002668Y014082D01*
X002668Y014253D02*
X002612Y014253D01*
X002725Y015082D02*
X002498Y015082D01*
X002725Y015309D01*
X002725Y015366D01*
X002668Y015423D01*
X002555Y015423D01*
X002498Y015366D01*
X002243Y015423D02*
X002243Y015082D01*
X002130Y015082D02*
X002357Y015082D01*
X002130Y015309D02*
X002243Y015423D01*
X002243Y016082D02*
X002243Y016423D01*
X002130Y016309D01*
X002130Y016082D02*
X002357Y016082D01*
X002498Y016082D02*
X002725Y016082D01*
X002612Y016082D02*
X002612Y016423D01*
X002498Y016309D01*
X002555Y017082D02*
X002498Y017139D01*
X002725Y017366D01*
X002725Y017139D01*
X002668Y017082D01*
X002555Y017082D01*
X002498Y017139D02*
X002498Y017366D01*
X002555Y017423D01*
X002668Y017423D01*
X002725Y017366D01*
X002357Y017082D02*
X002130Y017082D01*
X002243Y017082D02*
X002243Y017423D01*
X002130Y017309D01*
X002187Y018082D02*
X002300Y018082D01*
X002357Y018139D01*
X002357Y018366D01*
X002300Y018423D01*
X002187Y018423D01*
X002130Y018366D01*
X002130Y018309D01*
X002187Y018253D01*
X002357Y018253D01*
X002187Y018082D02*
X002130Y018139D01*
X002187Y019082D02*
X002130Y019139D01*
X002130Y019196D01*
X002187Y019253D01*
X002300Y019253D01*
X002357Y019196D01*
X002357Y019139D01*
X002300Y019082D01*
X002187Y019082D01*
X002187Y019253D02*
X002130Y019309D01*
X002130Y019366D01*
X002187Y019423D01*
X002300Y019423D01*
X002357Y019366D01*
X002357Y019309D01*
X002300Y019253D01*
X002130Y020582D02*
X002130Y020639D01*
X002357Y020866D01*
X002357Y020923D01*
X002130Y020923D01*
X002187Y021582D02*
X002300Y021582D01*
X002357Y021639D01*
X002357Y021696D01*
X002300Y021753D01*
X002130Y021753D01*
X002130Y021639D01*
X002187Y021582D01*
X002130Y021753D02*
X002243Y021866D01*
X002357Y021923D01*
X002300Y022582D02*
X002187Y022582D01*
X002130Y022639D01*
X002130Y022753D02*
X002243Y022809D01*
X002300Y022809D01*
X002357Y022753D01*
X002357Y022639D01*
X002300Y022582D01*
X002130Y022753D02*
X002130Y022923D01*
X002357Y022923D01*
X002300Y023582D02*
X002300Y023923D01*
X002130Y023753D01*
X002357Y023753D01*
X002300Y024582D02*
X002187Y024582D01*
X002130Y024639D01*
X002243Y024753D02*
X002300Y024753D01*
X002357Y024696D01*
X002357Y024639D01*
X002300Y024582D01*
X002300Y024753D02*
X002357Y024809D01*
X002357Y024866D01*
X002300Y024923D01*
X002187Y024923D01*
X002130Y024866D01*
X002130Y025582D02*
X002357Y025809D01*
X002357Y025866D01*
X002300Y025923D01*
X002187Y025923D01*
X002130Y025866D01*
X002130Y025582D02*
X002357Y025582D01*
X002243Y026582D02*
X002243Y026923D01*
X002130Y026923D02*
X002357Y026923D01*
X002498Y026923D02*
X002725Y026582D01*
X002498Y026582D02*
X002725Y026923D01*
X002725Y027582D02*
X002498Y027923D01*
X002357Y027866D02*
X002357Y027753D01*
X002300Y027696D01*
X002130Y027696D01*
X002243Y027696D02*
X002357Y027582D01*
X002498Y027582D02*
X002725Y027923D01*
X002357Y027866D02*
X002300Y027923D01*
X002130Y027923D01*
X002130Y027582D01*
X005100Y026752D02*
X005100Y026452D01*
X005850Y026452D01*
X005900Y026402D01*
X005900Y025152D01*
X006100Y025152D01*
X006100Y026402D01*
X006150Y026452D01*
X006850Y026452D01*
X006900Y026402D01*
X006900Y025152D01*
X007100Y025152D01*
X007100Y026402D01*
X007150Y026452D01*
X007900Y026452D01*
X007900Y025152D01*
X007900Y025052D01*
X007750Y025052D01*
X007750Y025152D01*
X007750Y025252D01*
X007250Y025252D01*
X007250Y025152D01*
X007100Y025152D01*
X007250Y025152D02*
X007250Y025052D01*
X006750Y025052D01*
X006750Y025152D01*
X006900Y025152D01*
X006750Y025152D02*
X006750Y025252D01*
X006250Y025252D01*
X006250Y025152D01*
X006100Y025152D01*
X006250Y025152D02*
X006250Y025052D01*
X005750Y025052D01*
X005750Y025152D01*
X005900Y025152D01*
X005750Y025152D02*
X005750Y025252D01*
X005250Y025252D01*
X005250Y025152D01*
X005100Y025152D01*
X005100Y025052D01*
X005250Y025052D01*
X005250Y025152D01*
X005100Y025152D02*
X005100Y026452D01*
X005100Y026752D02*
X005400Y026752D01*
X005400Y026802D01*
X005600Y026802D01*
X005600Y026752D01*
X005900Y026752D01*
X005900Y026702D01*
X006100Y026702D01*
X006100Y026752D01*
X006400Y026752D01*
X006400Y026802D01*
X006600Y026802D01*
X006600Y026752D01*
X006900Y026752D01*
X006900Y026702D01*
X007100Y026702D01*
X007100Y026752D01*
X007400Y026752D01*
X007400Y026802D01*
X007600Y026802D01*
X007600Y026752D01*
X007900Y026752D01*
X007900Y026452D01*
X007100Y026402D02*
X007000Y026302D01*
X006900Y026402D01*
X006100Y026402D02*
X006000Y026302D01*
X005900Y026402D01*
X005900Y024902D02*
X006100Y024902D01*
X006100Y024852D01*
X006900Y024852D01*
X006900Y024902D01*
X007100Y024902D01*
X007100Y024852D01*
X007900Y024852D01*
X007900Y025052D01*
X007900Y025152D02*
X007750Y025152D01*
X005900Y024902D02*
X005900Y024852D01*
X005100Y024852D01*
X005100Y025052D01*
X010100Y025152D02*
X010100Y025052D01*
X010250Y025052D01*
X010250Y025152D01*
X010250Y025252D01*
X010750Y025252D01*
X010750Y025152D01*
X010900Y025152D01*
X010900Y026402D01*
X011000Y026302D01*
X011100Y026402D01*
X011100Y025152D01*
X011250Y025152D01*
X011250Y025252D01*
X011750Y025252D01*
X011750Y025152D01*
X011900Y025152D01*
X011900Y026402D01*
X012000Y026302D01*
X012100Y026402D01*
X012100Y025152D01*
X012250Y025152D01*
X012250Y025252D01*
X012750Y025252D01*
X012750Y025152D01*
X012900Y025152D01*
X012900Y025052D01*
X012750Y025052D01*
X012750Y025152D01*
X012900Y025152D02*
X012900Y026452D01*
X012900Y026752D01*
X012600Y026752D01*
X012600Y026802D01*
X012400Y026802D01*
X012400Y026752D01*
X012100Y026752D01*
X012100Y026702D01*
X011900Y026702D01*
X011900Y026752D01*
X011600Y026752D01*
X011600Y026802D01*
X011400Y026802D01*
X011400Y026752D01*
X011100Y026752D01*
X011100Y026702D01*
X010900Y026702D01*
X010900Y026752D01*
X010600Y026752D01*
X010600Y026802D01*
X010400Y026802D01*
X010400Y026752D01*
X010100Y026752D01*
X010100Y026452D01*
X010850Y026452D01*
X010900Y026402D01*
X011100Y026402D02*
X011150Y026452D01*
X011850Y026452D01*
X011900Y026402D01*
X012100Y026402D02*
X012150Y026452D01*
X012900Y026452D01*
X012250Y025152D02*
X012250Y025052D01*
X011750Y025052D01*
X011750Y025152D01*
X011900Y025152D02*
X012100Y025152D01*
X012100Y024902D02*
X011900Y024902D01*
X011900Y024852D01*
X011100Y024852D01*
X011100Y024902D01*
X010900Y024902D01*
X010900Y024852D01*
X010100Y024852D01*
X010100Y025052D01*
X010100Y025152D02*
X010250Y025152D01*
X010100Y025152D02*
X010100Y026452D01*
X010750Y025152D02*
X010750Y025052D01*
X011250Y025052D01*
X011250Y025152D01*
X011100Y025152D02*
X010900Y025152D01*
X012100Y024902D02*
X012100Y024852D01*
X012900Y024852D01*
X012900Y025052D01*
X015600Y025852D02*
X015600Y026052D01*
X015600Y026152D01*
X015750Y026152D01*
X015750Y026252D01*
X016250Y026252D01*
X016250Y026152D01*
X016400Y026152D01*
X016400Y027402D01*
X016500Y027302D01*
X016600Y027402D01*
X016600Y026152D01*
X016400Y026152D01*
X016250Y026152D02*
X016250Y026052D01*
X016750Y026052D01*
X016750Y026152D01*
X016600Y026152D01*
X016750Y026152D02*
X016750Y026252D01*
X017250Y026252D01*
X017250Y026152D01*
X017400Y026152D01*
X017400Y026052D01*
X017250Y026052D01*
X017250Y026152D01*
X017400Y026152D02*
X017400Y027452D01*
X017400Y027752D01*
X017100Y027752D01*
X017100Y027802D01*
X016900Y027802D01*
X016900Y027752D01*
X016600Y027752D01*
X016600Y027702D01*
X016400Y027702D01*
X016400Y027752D01*
X016100Y027752D01*
X016100Y027802D01*
X015900Y027802D01*
X015900Y027752D01*
X015600Y027752D01*
X015600Y027452D01*
X015600Y026152D01*
X015600Y026052D02*
X015750Y026052D01*
X015750Y026152D01*
X015600Y025852D02*
X016400Y025852D01*
X016400Y025902D01*
X016600Y025902D01*
X016600Y025852D01*
X017400Y025852D01*
X017400Y026052D01*
X017400Y027452D02*
X016650Y027452D01*
X016600Y027402D01*
X016400Y027402D02*
X016350Y027452D01*
X015600Y027452D01*
X018985Y026332D02*
X018985Y026219D01*
X018985Y026275D02*
X019325Y026275D01*
X019325Y026219D02*
X019325Y026332D01*
X019325Y026464D02*
X019098Y026464D01*
X019098Y026634D01*
X019155Y026691D01*
X019325Y026691D01*
X019517Y026753D02*
X019744Y026753D01*
X019687Y026923D02*
X019687Y026582D01*
X019517Y026753D02*
X019687Y026923D01*
X019687Y027582D02*
X019573Y027582D01*
X019517Y027639D01*
X019517Y027753D02*
X019630Y027809D01*
X019687Y027809D01*
X019744Y027753D01*
X019744Y027639D01*
X019687Y027582D01*
X019517Y027753D02*
X019517Y027923D01*
X019744Y027923D01*
X019687Y025923D02*
X019744Y025866D01*
X019744Y025809D01*
X019687Y025753D01*
X019744Y025696D01*
X019744Y025639D01*
X019687Y025582D01*
X019573Y025582D01*
X019517Y025639D01*
X019438Y025652D02*
X019382Y025709D01*
X019098Y025709D01*
X019098Y025539D01*
X019155Y025482D01*
X019268Y025482D01*
X019325Y025539D01*
X019325Y025709D01*
X019438Y025652D02*
X019438Y025595D01*
X019630Y025753D02*
X019687Y025753D01*
X019687Y025923D02*
X019573Y025923D01*
X019517Y025866D01*
X019268Y025340D02*
X019155Y025340D01*
X019098Y025284D01*
X019098Y025170D01*
X019155Y025114D01*
X019268Y025114D01*
X019325Y025170D01*
X019325Y025284D01*
X019268Y025340D01*
X019325Y024981D02*
X019325Y024868D01*
X019325Y024925D02*
X018985Y024925D01*
X018985Y024868D01*
X019155Y024727D02*
X019325Y024727D01*
X019325Y024556D01*
X019268Y024500D01*
X019212Y024556D01*
X019212Y024727D01*
X019155Y024727D02*
X019098Y024670D01*
X019098Y024556D01*
X019155Y024358D02*
X019325Y024358D01*
X019155Y024358D02*
X019098Y024302D01*
X019098Y024131D01*
X019325Y024131D01*
X019325Y023990D02*
X019098Y023990D01*
X018985Y023877D01*
X019098Y023763D01*
X019325Y023763D01*
X019155Y023763D02*
X019155Y023990D01*
X019517Y023809D02*
X019630Y023923D01*
X019630Y023582D01*
X019517Y023582D02*
X019744Y023582D01*
X019687Y022923D02*
X019744Y022866D01*
X019517Y022639D01*
X019573Y022582D01*
X019687Y022582D01*
X019744Y022639D01*
X019744Y022866D01*
X019687Y022923D02*
X019573Y022923D01*
X019517Y022866D01*
X019517Y022639D01*
X019517Y020923D02*
X019744Y020582D01*
X019744Y020923D01*
X019517Y020923D02*
X019517Y020582D01*
X019385Y020582D02*
X019271Y020582D01*
X019328Y020582D02*
X019328Y020923D01*
X019271Y020923D02*
X019385Y020923D01*
X019130Y020923D02*
X019130Y020696D01*
X019016Y020582D01*
X018903Y020696D01*
X018903Y020923D01*
X018945Y019923D02*
X018832Y019923D01*
X018775Y019866D01*
X018775Y019639D01*
X018832Y019582D01*
X018945Y019582D01*
X019002Y019639D01*
X019002Y019753D01*
X018888Y019753D01*
X019002Y019866D02*
X018945Y019923D01*
X019143Y019923D02*
X019143Y019582D01*
X019370Y019582D02*
X019143Y019923D01*
X019370Y019923D02*
X019370Y019582D01*
X019512Y019582D02*
X019682Y019582D01*
X019739Y019639D01*
X019739Y019866D01*
X019682Y019923D01*
X019512Y019923D01*
X019512Y019582D01*
X019512Y018923D02*
X019682Y018923D01*
X019739Y018866D01*
X019739Y018639D01*
X019682Y018582D01*
X019512Y018582D01*
X019512Y018923D01*
X019370Y018923D02*
X019370Y018582D01*
X019143Y018923D01*
X019143Y018582D01*
X019002Y018639D02*
X019002Y018753D01*
X018888Y018753D01*
X018775Y018866D02*
X018775Y018639D01*
X018832Y018582D01*
X018945Y018582D01*
X019002Y018639D01*
X019002Y018866D02*
X018945Y018923D01*
X018832Y018923D01*
X018775Y018866D01*
X019143Y017923D02*
X019143Y017753D01*
X019257Y017809D01*
X019314Y017809D01*
X019370Y017753D01*
X019370Y017639D01*
X019314Y017582D01*
X019200Y017582D01*
X019143Y017639D01*
X019143Y017923D02*
X019370Y017923D01*
X019512Y017923D02*
X019512Y017696D01*
X019625Y017582D01*
X019739Y017696D01*
X019739Y017923D01*
X019682Y016923D02*
X019739Y016866D01*
X019739Y016809D01*
X019682Y016753D01*
X019739Y016696D01*
X019739Y016639D01*
X019682Y016582D01*
X019568Y016582D01*
X019512Y016639D01*
X019370Y016696D02*
X019370Y016923D01*
X019512Y016866D02*
X019568Y016923D01*
X019682Y016923D01*
X019682Y016753D02*
X019625Y016753D01*
X019370Y016696D02*
X019257Y016582D01*
X019143Y016696D01*
X019143Y016923D01*
X019002Y016866D02*
X019002Y016809D01*
X018945Y016753D01*
X019002Y016696D01*
X019002Y016639D01*
X018945Y016582D01*
X018832Y016582D01*
X018775Y016639D01*
X018888Y016753D02*
X018945Y016753D01*
X019002Y016866D02*
X018945Y016923D01*
X018832Y016923D01*
X018775Y016866D01*
X018775Y015923D02*
X018945Y015923D01*
X019002Y015866D01*
X019002Y015753D01*
X018945Y015696D01*
X018775Y015696D01*
X018888Y015696D02*
X019002Y015582D01*
X019143Y015639D02*
X019200Y015582D01*
X019314Y015582D01*
X019370Y015639D01*
X019370Y015696D01*
X019314Y015753D01*
X019200Y015753D01*
X019143Y015809D01*
X019143Y015866D01*
X019200Y015923D01*
X019314Y015923D01*
X019370Y015866D01*
X019512Y015923D02*
X019739Y015923D01*
X019625Y015923D02*
X019625Y015582D01*
X018775Y015582D02*
X018775Y015923D01*
X017050Y016152D02*
X017050Y016352D01*
X017000Y016352D01*
X017000Y016652D01*
X016950Y016652D01*
X016950Y016852D01*
X017000Y016852D01*
X017000Y017152D01*
X017050Y017152D01*
X017050Y017352D01*
X017000Y017352D01*
X017000Y017652D01*
X016700Y017652D01*
X015400Y017652D01*
X015300Y017652D01*
X015300Y017502D01*
X015400Y017502D01*
X015500Y017502D01*
X015500Y017002D01*
X015400Y017002D01*
X015400Y016852D01*
X016650Y016852D01*
X016550Y016752D01*
X016650Y016652D01*
X015400Y016652D01*
X015400Y016852D01*
X015400Y017002D02*
X015300Y017002D01*
X015300Y016502D01*
X015400Y016502D01*
X015400Y016652D01*
X015400Y016502D02*
X015500Y016502D01*
X015500Y016002D01*
X015400Y016002D01*
X015400Y015852D01*
X015300Y015852D01*
X015300Y016002D01*
X015400Y016002D01*
X015400Y015852D02*
X016700Y015852D01*
X017000Y015852D01*
X017000Y016152D01*
X017050Y016152D01*
X016700Y015852D02*
X016700Y016602D01*
X016650Y016652D01*
X016650Y016852D02*
X016700Y016902D01*
X016700Y017652D01*
X015400Y017652D02*
X015400Y017502D01*
X015300Y017652D02*
X015100Y017652D01*
X015100Y016852D01*
X015150Y016852D01*
X015150Y016652D01*
X015100Y016652D01*
X015100Y015852D01*
X015300Y015852D01*
X012650Y012752D02*
X011900Y012752D01*
X011898Y012791D01*
X011892Y012830D01*
X011883Y012868D01*
X011870Y012905D01*
X011853Y012941D01*
X011833Y012974D01*
X011809Y013006D01*
X011783Y013035D01*
X011754Y013061D01*
X011722Y013085D01*
X011689Y013105D01*
X011653Y013122D01*
X011616Y013135D01*
X011578Y013144D01*
X011539Y013150D01*
X011500Y013152D01*
X011461Y013150D01*
X011422Y013144D01*
X011384Y013135D01*
X011347Y013122D01*
X011311Y013105D01*
X011278Y013085D01*
X011246Y013061D01*
X011217Y013035D01*
X011191Y013006D01*
X011167Y012974D01*
X011147Y012941D01*
X011130Y012905D01*
X011117Y012868D01*
X011108Y012830D01*
X011102Y012791D01*
X011100Y012752D01*
X010350Y012752D01*
X010350Y020752D01*
X012650Y020752D01*
X012650Y012752D01*
X006900Y015852D02*
X006700Y015852D01*
X006600Y015852D01*
X006600Y016002D01*
X006500Y016002D01*
X006500Y016502D01*
X006600Y016502D01*
X006600Y016652D01*
X005350Y016652D01*
X005450Y016752D01*
X005350Y016852D01*
X006600Y016852D01*
X006600Y016652D01*
X006600Y016502D02*
X006700Y016502D01*
X006700Y017002D01*
X006600Y017002D01*
X006600Y016852D01*
X006600Y017002D02*
X006500Y017002D01*
X006500Y017502D01*
X006600Y017502D01*
X006600Y017652D01*
X006700Y017652D01*
X006700Y017502D01*
X006600Y017502D01*
X006600Y017652D02*
X005300Y017652D01*
X005000Y017652D01*
X005000Y017352D01*
X004950Y017352D01*
X004950Y017152D01*
X005000Y017152D01*
X005000Y016852D01*
X005050Y016852D01*
X005050Y016652D01*
X005000Y016652D01*
X005000Y016352D01*
X004950Y016352D01*
X004950Y016152D01*
X005000Y016152D01*
X005000Y015852D01*
X005300Y015852D01*
X006600Y015852D01*
X006700Y015852D02*
X006700Y016002D01*
X006600Y016002D01*
X006900Y015852D02*
X006900Y016652D01*
X006850Y016652D01*
X006850Y016852D01*
X006900Y016852D01*
X006900Y017652D01*
X006700Y017652D01*
X005350Y016852D02*
X005300Y016902D01*
X005300Y017652D01*
X005350Y016652D02*
X005300Y016602D01*
X005300Y015852D01*
X019517Y024582D02*
X019744Y024809D01*
X019744Y024866D01*
X019687Y024923D01*
X019573Y024923D01*
X019517Y024866D01*
X019517Y024582D02*
X019744Y024582D01*
D11*
X017267Y024937D02*
X017117Y025087D01*
X017192Y025087D02*
X016967Y025087D01*
X016967Y024937D02*
X016967Y025388D01*
X017192Y025388D01*
X017267Y025313D01*
X017267Y025163D01*
X017192Y025087D01*
X016806Y024937D02*
X016506Y024937D01*
X016506Y025388D01*
X016806Y025388D01*
X016656Y025163D02*
X016506Y025163D01*
X016346Y024937D02*
X016346Y025388D01*
X016046Y025388D02*
X016046Y024937D01*
X016196Y025087D01*
X016346Y024937D01*
X015886Y025012D02*
X015886Y025313D01*
X015811Y025388D01*
X015660Y025388D01*
X015585Y025313D01*
X015585Y025012D01*
X015660Y024937D01*
X015811Y024937D01*
X015886Y025012D01*
X015425Y025163D02*
X015350Y025087D01*
X015125Y025087D01*
X015125Y024937D02*
X015125Y025388D01*
X015350Y025388D01*
X015425Y025313D01*
X015425Y025163D01*
X015948Y027147D02*
X015835Y027261D01*
X016175Y027261D01*
X016175Y027374D02*
X016175Y027147D01*
X013188Y024313D02*
X013113Y024388D01*
X012962Y024388D01*
X012887Y024313D01*
X012727Y024313D02*
X012727Y024163D01*
X012652Y024087D01*
X012427Y024087D01*
X012427Y023937D02*
X012427Y024388D01*
X012652Y024388D01*
X012727Y024313D01*
X012577Y024087D02*
X012727Y023937D01*
X012887Y023937D02*
X013188Y024238D01*
X013188Y024313D01*
X013188Y023937D02*
X012887Y023937D01*
X012267Y024012D02*
X012267Y024313D01*
X012192Y024388D01*
X012042Y024388D01*
X011967Y024313D01*
X011967Y024012D01*
X012042Y023937D01*
X012192Y023937D01*
X012267Y024012D01*
X011806Y024012D02*
X011731Y023937D01*
X011581Y023937D01*
X011506Y024012D01*
X011581Y024163D02*
X011506Y024238D01*
X011506Y024313D01*
X011581Y024388D01*
X011731Y024388D01*
X011806Y024313D01*
X011731Y024163D02*
X011806Y024087D01*
X011806Y024012D01*
X011731Y024163D02*
X011581Y024163D01*
X011346Y024388D02*
X011346Y023937D01*
X011046Y024388D01*
X011046Y023937D01*
X010886Y023937D02*
X010585Y023937D01*
X010585Y024388D01*
X010886Y024388D01*
X010736Y024163D02*
X010585Y024163D01*
X010425Y024087D02*
X010425Y024012D01*
X010350Y023937D01*
X010200Y023937D01*
X010125Y024012D01*
X010200Y024163D02*
X010350Y024163D01*
X010425Y024087D01*
X010425Y024313D02*
X010350Y024388D01*
X010200Y024388D01*
X010125Y024313D01*
X010125Y024238D01*
X010200Y024163D01*
X010448Y026147D02*
X010335Y026261D01*
X010675Y026261D01*
X010675Y026374D02*
X010675Y026147D01*
X008037Y024388D02*
X008037Y023937D01*
X007887Y023937D02*
X008188Y023937D01*
X007887Y024238D02*
X008037Y024388D01*
X007727Y024313D02*
X007727Y024163D01*
X007652Y024087D01*
X007427Y024087D01*
X007427Y023937D02*
X007427Y024388D01*
X007652Y024388D01*
X007727Y024313D01*
X007577Y024087D02*
X007727Y023937D01*
X007267Y024012D02*
X007267Y024313D01*
X007192Y024388D01*
X007042Y024388D01*
X006967Y024313D01*
X006967Y024012D01*
X007042Y023937D01*
X007192Y023937D01*
X007267Y024012D01*
X006806Y024012D02*
X006731Y023937D01*
X006581Y023937D01*
X006506Y024012D01*
X006581Y024163D02*
X006731Y024163D01*
X006806Y024087D01*
X006806Y024012D01*
X006581Y024163D02*
X006506Y024238D01*
X006506Y024313D01*
X006581Y024388D01*
X006731Y024388D01*
X006806Y024313D01*
X006346Y024388D02*
X006346Y023937D01*
X006046Y024388D01*
X006046Y023937D01*
X005886Y023937D02*
X005585Y023937D01*
X005585Y024388D01*
X005886Y024388D01*
X005736Y024163D02*
X005585Y024163D01*
X005425Y024087D02*
X005425Y024012D01*
X005350Y023937D01*
X005200Y023937D01*
X005125Y024012D01*
X005200Y024163D02*
X005350Y024163D01*
X005425Y024087D01*
X005425Y024313D02*
X005350Y024388D01*
X005200Y024388D01*
X005125Y024313D01*
X005125Y024238D01*
X005200Y024163D01*
X005448Y026147D02*
X005335Y026261D01*
X005675Y026261D01*
X005675Y026374D02*
X005675Y026147D01*
X005409Y016428D02*
X005296Y016314D01*
X005409Y016428D02*
X005409Y016087D01*
X005296Y016087D02*
X005523Y016087D01*
X005623Y015068D02*
X005923Y015068D01*
X005773Y015068D02*
X005773Y014617D01*
X006083Y014692D02*
X006158Y014617D01*
X006309Y014617D01*
X006384Y014692D01*
X006384Y014993D01*
X006309Y015068D01*
X006158Y015068D01*
X006083Y014993D01*
X006083Y014692D01*
X006544Y014617D02*
X006544Y015068D01*
X006769Y015068D01*
X006844Y014993D01*
X006844Y014843D01*
X006769Y014767D01*
X006544Y014767D01*
X006694Y014767D02*
X006844Y014617D01*
X007004Y014542D02*
X007304Y014542D01*
X007465Y014617D02*
X007465Y014918D01*
X007615Y015068D01*
X007765Y014918D01*
X007765Y014617D01*
X007765Y014843D02*
X007465Y014843D01*
X005463Y014692D02*
X005463Y014993D01*
X005388Y015068D01*
X005238Y015068D01*
X005163Y014993D01*
X005163Y014692D01*
X005238Y014617D01*
X005388Y014617D01*
X005463Y014692D01*
X005003Y014617D02*
X005003Y015068D01*
X004852Y014918D01*
X004702Y015068D01*
X004702Y014617D01*
X010173Y012478D02*
X010173Y012027D01*
X010473Y012027D01*
X010633Y012027D02*
X010934Y012328D01*
X010934Y012403D01*
X010859Y012478D01*
X010708Y012478D01*
X010633Y012403D01*
X010633Y012027D02*
X010934Y012027D01*
X011094Y012102D02*
X011169Y012027D01*
X011319Y012027D01*
X011394Y012102D01*
X011394Y012403D01*
X011319Y012478D01*
X011169Y012478D01*
X011094Y012403D01*
X011094Y012328D01*
X011169Y012253D01*
X011394Y012253D01*
X011554Y012403D02*
X011629Y012478D01*
X011779Y012478D01*
X011854Y012403D01*
X011854Y012328D01*
X011779Y012253D01*
X011854Y012177D01*
X011854Y012102D01*
X011779Y012027D01*
X011629Y012027D01*
X011554Y012102D01*
X011704Y012253D02*
X011779Y012253D01*
X012015Y012478D02*
X012240Y012478D01*
X012315Y012403D01*
X012315Y012102D01*
X012240Y012027D01*
X012015Y012027D01*
X012015Y012478D01*
X014625Y014437D02*
X014625Y014888D01*
X014775Y014738D01*
X014925Y014888D01*
X014925Y014437D01*
X015085Y014512D02*
X015085Y014813D01*
X015160Y014888D01*
X015311Y014888D01*
X015386Y014813D01*
X015386Y014512D01*
X015311Y014437D01*
X015160Y014437D01*
X015085Y014512D01*
X015546Y014888D02*
X015846Y014888D01*
X015696Y014888D02*
X015696Y014437D01*
X016006Y014512D02*
X016081Y014437D01*
X016231Y014437D01*
X016306Y014512D01*
X016306Y014813D01*
X016231Y014888D01*
X016081Y014888D01*
X016006Y014813D01*
X016006Y014512D01*
X016467Y014437D02*
X016467Y014888D01*
X016692Y014888D01*
X016767Y014813D01*
X016767Y014663D01*
X016692Y014587D01*
X016467Y014587D01*
X016617Y014587D02*
X016767Y014437D01*
X016927Y014362D02*
X017227Y014362D01*
X017387Y014437D02*
X017387Y014888D01*
X017613Y014888D01*
X017688Y014813D01*
X017688Y014738D01*
X017613Y014663D01*
X017387Y014663D01*
X017613Y014663D02*
X017688Y014587D01*
X017688Y014512D01*
X017613Y014437D01*
X017387Y014437D01*
X016622Y017077D02*
X016395Y017077D01*
X016508Y017077D02*
X016508Y017418D01*
X016395Y017304D01*
M02*
