%
M48
M72
T01C0.0236
T02C0.0315
T03C0.0320
T04C0.0354
T05C0.0360
T06C0.0394
T07C0.0400
T08C0.1260
%
T01
X6438Y5726
X7631Y2776
X7631Y1776
X13004Y4949
X13004Y6349
X15629Y7839
X17440Y7398
X19628Y6351
X19628Y4951
X17440Y5398
X16242Y4514
X6791Y10060
X1496Y11471
X1496Y13471
X11504Y19151
X11504Y20151
X15036Y14469
X17036Y14469
X19285Y17135
X21196Y16891
X22282Y16891
X23380Y16898
X23380Y18898
X22282Y18891
X21196Y18891
X19285Y20635
X25879Y13526
X26879Y13526
X27879Y13401
X28879Y13401
X28879Y11151
X25879Y11151
T02
X26141Y2662
X25141Y2662
X24141Y2662
X23141Y2662
X22141Y2662
X20102Y2692
X19102Y2692
X18102Y2692
X17102Y2692
X16102Y2692
X15102Y2692
X27141Y2662
X27099Y21642
X26099Y21642
X25099Y21642
X24099Y21642
X23099Y21642
X22099Y21642
X21099Y21642
X20099Y21642
X18501Y21658
X17501Y21658
X16501Y21658
X15501Y21658
X14501Y21658
X13501Y21658
X12501Y21658
X11501Y21658
T03
X6112Y14883
X10629Y12652
X11629Y12652
X12629Y12652
X13629Y12652
X14629Y12652
X15629Y12652
X16629Y12652
X17629Y12652
X18629Y12652
X19629Y12652
X20629Y12652
X21629Y12652
X22629Y12652
X23629Y12652
X23629Y9652
X22629Y9652
X21629Y9652
X20629Y9652
X19629Y9652
X18629Y9652
X17629Y9652
X16629Y9652
X15629Y9652
X14629Y9652
X13629Y9652
X12629Y9652
X11629Y9652
X10629Y9652
X6112Y10883
X6629Y4901
X10629Y4901
X24799Y7739
X27627Y4911
X28204Y15361
X26879Y15401
X26879Y19401
X28204Y19361
T04
X10651Y3790
X6651Y3790
T05
X3684Y3006
X3684Y2006
X2240Y15262
X2947Y15969
X3654Y16676
X4361Y17383
X5068Y18090
X5775Y18797
X6482Y19504
X7189Y20211
X7896Y20919
X8603Y21626
X9311Y22333
T06
X26862Y10183
X28642Y10183
X28642Y7623
X26862Y7623
T07
X4775Y11238
X3775Y11238
X2775Y11238
T08
X1205Y1226
X12698Y2260
X25734Y8801
X28661Y1137
X28404Y23360
X1363Y23341
M30
